<svg xmlns="http://www.w3.org/2000/svg" viewBox="0 0 64 64" role="img" aria-label="Elsewhere by Avery favicon">
  <circle cx="32" cy="32" r="28" fill="#f3eadc"/>
  <path
    fill="#a85638"
    transform="translate(19.094 49.5)"
    d="M1.4414062 -18.720703C1.4414062 -9.2548828 7.1982422 0.36035156 16.303711 0.36035156C22.464844 0.36035156 26.024414 -3.6035156 24.301758 -7.7080078L24.196289 -7.7080078C23.036133 -5.9765625 20.917969 -4.6757812 18.219727 -4.6757812C11.408203 -4.6757812 4.9306641 -12.27832 4.6757812 -22.675781L6.8730469 -22.675781C11.953125 -22.675781 15.591797 -20.847656 17.138672 -18.360352L17.244141 -18.360352L19.546875 -24.011719L4.6757812 -24.011719C4.9306641 -30.348633 8.3144531 -34.664062 10.441406 -34.664062C14.475586 -34.664062 19.977539 -33.477539 23.72168 -27.650391L23.835938 -27.650391L23.835938 -36L8.6396484 -36C3.7441406 -32.326172 1.4414062 -25.59375 1.4414062 -18.720703Z"/>
</svg>
