<svg xmlns="http://www.w3.org/2000/svg" xmlns:xlink="http://www.w3.org/1999/xlink" width="2000" zoomAndPan="magnify" viewBox="0 0 1500 1499.999933" height="2000" preserveAspectRatio="xMidYMid meet" version="1.0"><defs><g/><clipPath id="9daedb3273"><rect x="0" width="1298" y="0" height="250"/></clipPath><clipPath id="0182f0b072"><rect x="0" width="41" y="0" height="287"/></clipPath><clipPath id="c0147a54e7"><rect x="0" width="499" y="0" height="256"/></clipPath></defs><g transform="matrix(1, 0, 0, 1, 60, 594)"><g clip-path="url(#9daedb3273)"><g fill="#fcf7ef" fill-opacity="1"><g transform="translate(2.120254, 195.120967)"><g><path d="M 38.71875 0 L 2.859375 0 C 6.804688 -13.476562 10.367188 -25.78125 13.546875 -36.90625 C 16.722656 -48.039062 19.675781 -58.628906 22.40625 -68.671875 C 25.144531 -78.722656 27.878906 -88.769531 30.609375 -98.8125 C 33.347656 -108.863281 36.304688 -119.546875 39.484375 -130.859375 C 42.660156 -142.179688 46.222656 -154.644531 50.171875 -168.25 C 52.710938 -177.15625 55.222656 -183.769531 57.703125 -188.09375 C 60.179688 -192.414062 63.710938 -194.578125 68.296875 -194.578125 C 72.867188 -194.578125 76.300781 -192.414062 78.59375 -188.09375 C 80.882812 -183.769531 83.300781 -177.15625 85.84375 -168.25 C 89.789062 -154.519531 93.351562 -142.023438 96.53125 -130.765625 C 99.707031 -119.515625 102.660156 -108.832031 105.390625 -98.71875 C 108.128906 -88.613281 110.863281 -78.535156 113.59375 -68.484375 C 116.332031 -58.441406 119.289062 -47.882812 122.46875 -36.8125 C 125.644531 -25.75 129.207031 -13.476562 133.15625 0 L 92.90625 0 C 88.320312 -11.445312 84.945312 -21.96875 82.78125 -31.5625 C 80.625 -41.164062 79.546875 -50.546875 79.546875 -59.703125 C 79.546875 -68.222656 79.925781 -75.601562 80.6875 -81.84375 L 45.59375 -81.84375 C 46.101562 -75.863281 46.769531 -70.929688 47.59375 -67.046875 C 48.425781 -63.171875 49.253906 -59.578125 50.078125 -56.265625 C 50.898438 -52.960938 51.597656 -49.304688 52.171875 -45.296875 C 52.742188 -41.296875 53.03125 -36.242188 53.03125 -30.140625 C 53.03125 -26.066406 52.332031 -21.898438 50.9375 -17.640625 C 49.539062 -13.378906 47.726562 -9.660156 45.5 -6.484375 C 43.269531 -3.304688 41.007812 -1.144531 38.71875 0 Z M 45.015625 -89.84375 L 81.640625 -89.84375 C 82.660156 -96.71875 83.710938 -103.207031 84.796875 -109.3125 C 85.878906 -115.414062 86.421875 -122.535156 86.421875 -130.671875 C 86.421875 -137.921875 84.894531 -143.613281 81.84375 -147.75 C 78.789062 -151.882812 74.460938 -153.953125 68.859375 -153.953125 C 63.265625 -153.953125 58.847656 -152.296875 55.609375 -148.984375 C 52.367188 -145.679688 49.984375 -141.359375 48.453125 -136.015625 C 46.929688 -130.671875 45.945312 -124.882812 45.5 -118.65625 C 45.050781 -112.425781 44.828125 -106.445312 44.828125 -100.71875 C 44.828125 -98.6875 44.828125 -96.78125 44.828125 -95 C 44.828125 -93.21875 44.890625 -91.5 45.015625 -89.84375 Z M 45.015625 -89.84375 "/></g></g></g><g fill="#fcf7ef" fill-opacity="1"><g transform="translate(138.113863, 195.120967)"><g/></g></g><g fill="#fcf7ef" fill-opacity="1"><g transform="translate(185.797453, 195.120967)"><g><path d="M 5.71875 0 L 5.71875 -190.765625 L 71.921875 -190.765625 C 80.566406 -190.765625 87.625 -189.175781 93.09375 -186 C 98.5625 -182.820312 102.628906 -178.625 105.296875 -173.40625 C 107.972656 -168.1875 109.3125 -162.523438 109.3125 -156.421875 C 109.3125 -147.648438 108.003906 -140.242188 105.390625 -134.203125 C 102.785156 -128.160156 99.382812 -123.164062 95.1875 -119.21875 C 90.988281 -115.28125 86.566406 -112.070312 81.921875 -109.59375 C 77.285156 -107.113281 72.867188 -104.984375 68.671875 -103.203125 C 64.472656 -101.421875 61.070312 -99.671875 58.46875 -97.953125 C 55.863281 -96.234375 54.5625 -94.171875 54.5625 -91.765625 C 54.5625 -89.085938 55.894531 -86.859375 58.5625 -85.078125 C 61.238281 -83.296875 64.671875 -81.546875 68.859375 -79.828125 C 73.054688 -78.117188 77.476562 -76.117188 82.125 -73.828125 C 86.769531 -71.535156 91.1875 -68.546875 95.375 -64.859375 C 99.570312 -61.171875 103.003906 -56.429688 105.671875 -50.640625 C 108.347656 -44.859375 109.6875 -37.644531 109.6875 -29 C 109.6875 -25.050781 109.429688 -20.851562 108.921875 -16.40625 C 108.421875 -11.957031 107.914062 -8.109375 107.40625 -4.859375 C 106.894531 -1.617188 106.640625 0 106.640625 0 L 68.671875 0 C 68.671875 0 69.210938 -2.222656 70.296875 -6.671875 C 71.378906 -11.128906 71.921875 -19.015625 71.921875 -30.328125 C 71.921875 -39.992188 71.03125 -47.847656 69.25 -53.890625 C 67.46875 -59.929688 65.304688 -64.828125 62.765625 -68.578125 C 60.222656 -72.328125 57.644531 -75.535156 55.03125 -78.203125 C 52.425781 -80.878906 50.234375 -83.613281 48.453125 -86.40625 C 46.671875 -89.207031 45.78125 -92.769531 45.78125 -97.09375 C 45.78125 -103.832031 47.304688 -110.285156 50.359375 -116.453125 C 53.410156 -122.628906 57.222656 -128.484375 61.796875 -134.015625 C 66.378906 -139.546875 70.957031 -144.726562 75.53125 -149.5625 C 80.113281 -154.394531 83.929688 -158.910156 86.984375 -163.109375 C 90.035156 -167.304688 91.5625 -171.179688 91.5625 -174.734375 C 91.5625 -176.515625 90.832031 -178.132812 89.375 -179.59375 C 87.914062 -181.0625 85.65625 -181.796875 82.59375 -181.796875 C 78.78125 -181.796875 75.285156 -180.875 72.109375 -179.03125 C 68.929688 -177.1875 65.941406 -174.894531 63.140625 -172.15625 C 60.347656 -169.425781 57.519531 -166.722656 54.65625 -164.046875 C 51.789062 -161.378906 48.769531 -159.125 45.59375 -157.28125 C 42.414062 -155.4375 38.851562 -154.515625 34.90625 -154.515625 C 31.851562 -154.515625 29.375 -155.085938 27.46875 -156.234375 C 25.5625 -157.378906 23.941406 -158.492188 22.609375 -159.578125 C 21.273438 -160.660156 19.90625 -161.203125 18.5 -161.203125 C 17.226562 -161.203125 16.242188 -160.660156 15.546875 -159.578125 C 14.847656 -158.492188 14.5 -157.0625 14.5 -155.28125 C 14.5 -150.570312 15.453125 -145.515625 17.359375 -140.109375 C 19.265625 -134.710938 21.648438 -128.707031 24.515625 -122.09375 C 27.378906 -115.476562 30.207031 -107.910156 33 -99.390625 C 35.800781 -90.867188 38.15625 -81.203125 40.0625 -70.390625 C 41.96875 -59.578125 42.921875 -47.242188 42.921875 -33.390625 L 42.921875 0 Z M 5.71875 0 "/></g></g></g><g fill="#fcf7ef" fill-opacity="1"><g transform="translate(297.377064, 195.120967)"><g><path d="M 59.90625 3.8125 C 42.601562 3.8125 28.925781 -4.257812 18.875 -20.40625 C 8.832031 -36.5625 3.8125 -61.550781 3.8125 -95.375 C 3.8125 -129.207031 8.832031 -154.195312 18.875 -170.34375 C 28.925781 -186.5 42.601562 -194.578125 59.90625 -194.578125 C 77.320312 -194.578125 91.019531 -186.5 101 -170.34375 C 110.988281 -154.195312 115.984375 -129.207031 115.984375 -95.375 C 115.984375 -61.550781 110.988281 -36.5625 101 -20.40625 C 91.019531 -4.257812 77.320312 3.8125 59.90625 3.8125 Z M 30.515625 -29.765625 C 30.515625 -25.816406 31.5 -22.03125 33.46875 -18.40625 C 35.445312 -14.78125 38.375 -11.757812 42.25 -9.34375 C 46.132812 -6.925781 50.875 -5.71875 56.46875 -5.71875 C 63.59375 -5.71875 69.503906 -7.4375 74.203125 -10.875 C 78.910156 -14.3125 82.472656 -18.632812 84.890625 -23.84375 C 87.304688 -29.0625 88.515625 -34.335938 88.515625 -39.671875 C 88.515625 -46.546875 88.128906 -52.492188 87.359375 -57.515625 C 86.597656 -62.535156 85.675781 -67.113281 84.59375 -71.25 C 83.519531 -75.382812 82.441406 -79.484375 81.359375 -83.546875 C 80.273438 -87.617188 79.351562 -92.164062 78.59375 -97.1875 C 77.832031 -102.21875 77.453125 -108.101562 77.453125 -114.84375 C 77.453125 -120.6875 78.148438 -125.644531 79.546875 -129.71875 C 80.941406 -133.789062 82.53125 -137.414062 84.3125 -140.59375 C 86.09375 -143.769531 87.679688 -146.851562 89.078125 -149.84375 C 90.484375 -152.832031 91.1875 -156.171875 91.1875 -159.859375 C 91.1875 -163.804688 90.195312 -167.59375 88.21875 -171.21875 C 86.25 -174.84375 83.328125 -177.859375 79.453125 -180.265625 C 75.578125 -182.679688 70.773438 -183.890625 65.046875 -183.890625 C 58.054688 -183.890625 52.207031 -182.171875 47.5 -178.734375 C 42.789062 -175.304688 39.226562 -171.015625 36.8125 -165.859375 C 34.394531 -160.710938 33.1875 -155.40625 33.1875 -149.9375 C 33.1875 -143.070312 33.566406 -137.125 34.328125 -132.09375 C 35.097656 -127.070312 36.019531 -122.492188 37.09375 -118.359375 C 38.175781 -114.234375 39.257812 -110.132812 40.34375 -106.0625 C 41.425781 -102 42.347656 -97.453125 43.109375 -92.421875 C 43.867188 -87.398438 44.25 -81.519531 44.25 -74.78125 C 44.25 -68.925781 43.550781 -63.960938 42.15625 -59.890625 C 40.757812 -55.828125 39.171875 -52.203125 37.390625 -49.015625 C 35.609375 -45.835938 34.015625 -42.753906 32.609375 -39.765625 C 31.210938 -36.785156 30.515625 -33.453125 30.515625 -29.765625 Z M 30.515625 -29.765625 "/></g></g></g><g fill="#fcf7ef" fill-opacity="1"><g transform="translate(417.158243, 195.120967)"><g><path d="M 59.90625 3.8125 C 42.601562 3.8125 28.925781 -4.257812 18.875 -20.40625 C 8.832031 -36.5625 3.8125 -61.550781 3.8125 -95.375 C 3.8125 -129.207031 8.832031 -154.195312 18.875 -170.34375 C 28.925781 -186.5 42.601562 -194.578125 59.90625 -194.578125 C 77.320312 -194.578125 91.019531 -186.5 101 -170.34375 C 110.988281 -154.195312 115.984375 -129.207031 115.984375 -95.375 C 115.984375 -61.550781 110.988281 -36.5625 101 -20.40625 C 91.019531 -4.257812 77.320312 3.8125 59.90625 3.8125 Z M 30.515625 -29.765625 C 30.515625 -25.816406 31.5 -22.03125 33.46875 -18.40625 C 35.445312 -14.78125 38.375 -11.757812 42.25 -9.34375 C 46.132812 -6.925781 50.875 -5.71875 56.46875 -5.71875 C 63.59375 -5.71875 69.503906 -7.4375 74.203125 -10.875 C 78.910156 -14.3125 82.472656 -18.632812 84.890625 -23.84375 C 87.304688 -29.0625 88.515625 -34.335938 88.515625 -39.671875 C 88.515625 -46.546875 88.128906 -52.492188 87.359375 -57.515625 C 86.597656 -62.535156 85.675781 -67.113281 84.59375 -71.25 C 83.519531 -75.382812 82.441406 -79.484375 81.359375 -83.546875 C 80.273438 -87.617188 79.351562 -92.164062 78.59375 -97.1875 C 77.832031 -102.21875 77.453125 -108.101562 77.453125 -114.84375 C 77.453125 -120.6875 78.148438 -125.644531 79.546875 -129.71875 C 80.941406 -133.789062 82.53125 -137.414062 84.3125 -140.59375 C 86.09375 -143.769531 87.679688 -146.851562 89.078125 -149.84375 C 90.484375 -152.832031 91.1875 -156.171875 91.1875 -159.859375 C 91.1875 -163.804688 90.195312 -167.59375 88.21875 -171.21875 C 86.25 -174.84375 83.328125 -177.859375 79.453125 -180.265625 C 75.578125 -182.679688 70.773438 -183.890625 65.046875 -183.890625 C 58.054688 -183.890625 52.207031 -182.171875 47.5 -178.734375 C 42.789062 -175.304688 39.226562 -171.015625 36.8125 -165.859375 C 34.394531 -160.710938 33.1875 -155.40625 33.1875 -149.9375 C 33.1875 -143.070312 33.566406 -137.125 34.328125 -132.09375 C 35.097656 -127.070312 36.019531 -122.492188 37.09375 -118.359375 C 38.175781 -114.234375 39.257812 -110.132812 40.34375 -106.0625 C 41.425781 -102 42.347656 -97.453125 43.109375 -92.421875 C 43.867188 -87.398438 44.25 -81.519531 44.25 -74.78125 C 44.25 -68.925781 43.550781 -63.960938 42.15625 -59.890625 C 40.757812 -55.828125 39.171875 -52.203125 37.390625 -49.015625 C 35.609375 -45.835938 34.015625 -42.753906 32.609375 -39.765625 C 31.210938 -36.785156 30.515625 -33.453125 30.515625 -29.765625 Z M 30.515625 -29.765625 "/></g></g></g><g fill="#fcf7ef" fill-opacity="1"><g transform="translate(536.939422, 195.120967)"><g><path d="M 5.71875 0 L 5.71875 -190.765625 C 9.789062 -188.347656 13.765625 -186.472656 17.640625 -185.140625 C 21.523438 -183.804688 26.203125 -183.140625 31.671875 -183.140625 C 36.503906 -183.140625 40.601562 -183.707031 43.96875 -184.84375 C 47.34375 -185.988281 50.488281 -187.320312 53.40625 -188.84375 C 56.332031 -190.375 59.351562 -191.710938 62.46875 -192.859375 C 65.59375 -194.003906 69.316406 -194.578125 73.640625 -194.578125 C 79.109375 -194.578125 83.875 -193.554688 87.9375 -191.515625 C 92.007812 -189.484375 95.445312 -186.625 98.25 -182.9375 L 98.25 -183.140625 C 103.082031 -183.140625 107.179688 -183.707031 110.546875 -184.84375 C 113.921875 -185.988281 117.066406 -187.320312 119.984375 -188.84375 C 122.910156 -190.375 125.929688 -191.710938 129.046875 -192.859375 C 132.171875 -194.003906 135.894531 -194.578125 140.21875 -194.578125 C 148.601562 -194.578125 155.4375 -192.222656 160.71875 -187.515625 C 166 -182.816406 169.847656 -176.171875 172.265625 -167.578125 C 174.679688 -158.992188 175.890625 -148.914062 175.890625 -137.34375 L 175.890625 0 L 138.6875 0 L 138.6875 -109.125 C 138.6875 -115.476562 139.476562 -121.003906 141.0625 -125.703125 C 142.65625 -130.410156 144.628906 -134.578125 146.984375 -138.203125 C 149.335938 -141.828125 151.65625 -145.226562 153.9375 -148.40625 C 156.226562 -151.59375 158.171875 -154.898438 159.765625 -158.328125 C 161.359375 -161.765625 162.15625 -165.644531 162.15625 -169.96875 C 162.15625 -172.132812 161.738281 -174.203125 160.90625 -176.171875 C 160.082031 -178.140625 158.585938 -179.125 156.421875 -179.125 C 154.140625 -179.125 151.976562 -178.234375 149.9375 -176.453125 C 147.90625 -174.671875 145.804688 -172.476562 143.640625 -169.875 C 141.484375 -167.269531 139.128906 -164.660156 136.578125 -162.046875 C 134.035156 -159.441406 131.113281 -157.25 127.8125 -155.46875 C 124.507812 -153.6875 120.691406 -152.796875 116.359375 -152.796875 C 115.085938 -152.796875 113.785156 -152.859375 112.453125 -152.984375 C 111.117188 -153.117188 109.753906 -153.3125 108.359375 -153.5625 C 108.609375 -151.144531 108.828125 -148.566406 109.015625 -145.828125 C 109.210938 -143.097656 109.3125 -140.269531 109.3125 -137.34375 L 109.3125 0 L 72.109375 0 L 72.109375 -109.125 C 72.109375 -115.476562 72.898438 -121.003906 74.484375 -125.703125 C 76.078125 -130.410156 78.050781 -134.578125 80.40625 -138.203125 C 82.757812 -141.828125 85.078125 -145.226562 87.359375 -148.40625 C 89.648438 -151.59375 91.59375 -154.898438 93.1875 -158.328125 C 94.78125 -161.765625 95.578125 -165.644531 95.578125 -169.96875 C 95.578125 -172.132812 95.160156 -174.203125 94.328125 -176.171875 C 93.503906 -178.140625 92.007812 -179.125 89.84375 -179.125 C 87.5625 -179.125 85.398438 -178.234375 83.359375 -176.453125 C 81.328125 -174.671875 79.226562 -172.476562 77.0625 -169.875 C 74.90625 -167.269531 72.554688 -164.660156 70.015625 -162.046875 C 67.472656 -159.441406 64.546875 -157.25 61.234375 -155.46875 C 57.929688 -153.6875 54.117188 -152.796875 49.796875 -152.796875 C 42.035156 -152.796875 35.070312 -154.894531 28.90625 -159.09375 C 22.738281 -163.289062 17.488281 -169.269531 13.15625 -177.03125 C 13.15625 -170.675781 14.140625 -164.539062 16.109375 -158.625 C 18.085938 -152.707031 20.570312 -146.789062 23.5625 -140.875 C 26.550781 -134.96875 29.503906 -128.832031 32.421875 -122.46875 C 35.347656 -116.113281 37.796875 -109.3125 39.765625 -102.0625 C 41.742188 -94.8125 42.734375 -86.863281 42.734375 -78.21875 L 42.734375 0 Z M 5.71875 0 "/></g></g></g><g fill="#fcf7ef" fill-opacity="1"><g transform="translate(718.518552, 195.120967)"><g/></g></g><g fill="#fcf7ef" fill-opacity="1"><g transform="translate(766.202142, 195.120967)"><g><path d="M 54.75 -18.6875 C 50.675781 -31.789062 46.890625 -44.03125 43.390625 -55.40625 C 39.898438 -66.789062 36.53125 -77.757812 33.28125 -88.3125 C 30.039062 -98.875 26.863281 -109.460938 23.75 -120.078125 C 20.632812 -130.703125 17.359375 -141.769531 13.921875 -153.28125 C 10.492188 -164.789062 6.804688 -177.285156 2.859375 -190.765625 L 42.546875 -190.765625 C 45.597656 -183.128906 48.488281 -175.082031 51.21875 -166.625 C 53.957031 -158.175781 56.179688 -149.722656 57.890625 -141.265625 C 59.609375 -132.804688 60.46875 -124.695312 60.46875 -116.9375 C 60.46875 -106.632812 60.085938 -97.539062 59.328125 -89.65625 C 58.566406 -81.769531 57.769531 -74.613281 56.9375 -68.1875 C 56.113281 -61.769531 55.703125 -55.570312 55.703125 -49.59375 C 55.703125 -44.757812 56.78125 -40.785156 58.9375 -37.671875 C 61.101562 -34.554688 64.921875 -33 70.390625 -33 C 74.078125 -33 77.191406 -34.332031 79.734375 -37 C 82.285156 -39.675781 84.351562 -43.144531 85.9375 -47.40625 C 87.53125 -51.664062 88.800781 -56.210938 89.75 -61.046875 C 90.707031 -65.878906 91.34375 -70.519531 91.65625 -74.96875 C 91.976562 -79.414062 92.140625 -83.164062 92.140625 -86.21875 C 92.140625 -94.238281 92.039062 -101.488281 91.84375 -107.96875 C 91.65625 -114.457031 91.375 -120.628906 91 -126.484375 C 88.070312 -136.273438 85.050781 -146.414062 81.9375 -156.90625 C 78.820312 -167.394531 75.484375 -178.679688 71.921875 -190.765625 L 111.59375 -190.765625 C 114.644531 -183.128906 117.535156 -175.082031 120.265625 -166.625 C 123.003906 -158.175781 125.234375 -149.722656 126.953125 -141.265625 C 128.671875 -132.804688 129.53125 -124.695312 129.53125 -116.9375 C 129.53125 -106.632812 129.144531 -97.539062 128.375 -89.65625 C 127.613281 -81.769531 126.820312 -74.613281 126 -68.1875 C 125.175781 -61.769531 124.765625 -55.570312 124.765625 -49.59375 C 124.765625 -44.757812 125.84375 -40.785156 128 -37.671875 C 130.164062 -34.554688 133.984375 -33 139.453125 -33 C 143.140625 -33 146.253906 -34.332031 148.796875 -37 C 151.335938 -39.675781 153.398438 -43.144531 154.984375 -47.40625 C 156.578125 -51.664062 157.851562 -56.210938 158.8125 -61.046875 C 159.769531 -65.878906 160.40625 -70.519531 160.71875 -74.96875 C 161.039062 -79.414062 161.203125 -83.164062 161.203125 -86.21875 C 161.203125 -96.144531 160.882812 -104.921875 160.25 -112.546875 C 159.613281 -120.179688 158.941406 -127.367188 158.234375 -134.109375 C 157.535156 -140.847656 157.1875 -147.78125 157.1875 -154.90625 C 157.1875 -159.101562 157.757812 -163.550781 158.90625 -168.25 C 160.050781 -172.957031 161.800781 -177.378906 164.15625 -181.515625 C 166.507812 -185.648438 169.46875 -188.734375 173.03125 -190.765625 L 206.984375 -190.765625 C 203.035156 -177.285156 199.34375 -164.789062 195.90625 -153.28125 C 192.476562 -141.769531 189.175781 -130.703125 186 -120.078125 C 182.820312 -109.460938 179.609375 -98.875 176.359375 -88.3125 C 173.117188 -77.757812 169.78125 -66.820312 166.34375 -55.5 C 162.914062 -44.1875 159.164062 -31.914062 155.09375 -18.6875 C 154.070312 -15.382812 152.925781 -11.984375 151.65625 -8.484375 C 150.382812 -4.992188 148.859375 -2.070312 147.078125 0.28125 C 145.296875 2.632812 143.132812 3.8125 140.59375 3.8125 C 137.289062 3.8125 134.585938 2.632812 132.484375 0.28125 C 130.390625 -2.070312 128.671875 -4.992188 127.328125 -8.484375 C 125.992188 -11.984375 124.820312 -15.382812 123.8125 -18.6875 C 120.25 -30.132812 116.941406 -40.878906 113.890625 -50.921875 C 110.835938 -60.972656 107.847656 -70.644531 104.921875 -79.9375 C 102.117188 -70.644531 99.160156 -60.972656 96.046875 -50.921875 C 92.929688 -40.878906 89.59375 -30.132812 86.03125 -18.6875 C 85.019531 -15.382812 83.875 -11.984375 82.59375 -8.484375 C 81.320312 -4.992188 79.796875 -2.070312 78.015625 0.28125 C 76.242188 2.632812 74.082031 3.8125 71.53125 3.8125 C 68.226562 3.8125 65.523438 2.632812 63.421875 0.28125 C 61.328125 -2.070312 59.613281 -4.992188 58.28125 -8.484375 C 56.945312 -11.984375 55.769531 -15.382812 54.75 -18.6875 Z M 54.75 -18.6875 "/></g></g></g><g fill="#fcf7ef" fill-opacity="1"><g transform="translate(976.010001, 195.120967)"><g><path d="M 6.484375 0 C 4.703125 -3.175781 3.8125 -8.070312 3.8125 -14.6875 C 3.8125 -21.175781 4.640625 -28.265625 6.296875 -35.953125 C 7.953125 -43.648438 9.859375 -51.34375 12.015625 -59.03125 C 14.179688 -66.726562 16.085938 -73.753906 17.734375 -80.109375 C 19.390625 -86.472656 20.21875 -91.5625 20.21875 -95.375 C 20.21875 -99.195312 19.390625 -104.316406 17.734375 -110.734375 C 16.085938 -117.160156 14.179688 -124.1875 12.015625 -131.8125 C 9.859375 -139.445312 7.953125 -147.109375 6.296875 -154.796875 C 4.640625 -162.492188 3.8125 -169.585938 3.8125 -176.078125 C 3.8125 -182.691406 4.703125 -187.585938 6.484375 -190.765625 L 42.34375 -190.765625 C 44.125 -187.585938 45.015625 -182.691406 45.015625 -176.078125 C 45.015625 -169.585938 44.1875 -162.492188 42.53125 -154.796875 C 40.882812 -147.109375 38.976562 -139.445312 36.8125 -131.8125 C 34.65625 -124.1875 32.75 -117.160156 31.09375 -110.734375 C 29.4375 -104.316406 28.609375 -99.195312 28.609375 -95.375 C 28.609375 -91.5625 29.4375 -86.472656 31.09375 -80.109375 C 32.75 -73.753906 34.65625 -66.726562 36.8125 -59.03125 C 38.976562 -51.34375 40.882812 -43.648438 42.53125 -35.953125 C 44.1875 -28.265625 45.015625 -21.175781 45.015625 -14.6875 C 45.015625 -8.070312 44.125 -3.175781 42.34375 0 Z M 6.484375 0 "/></g></g></g><g fill="#fcf7ef" fill-opacity="1"><g transform="translate(1024.838, 195.120967)"><g><path d="M 3.8125 -190.765625 L 105.296875 -190.765625 L 105.296875 -148.03125 C 104.148438 -147.144531 102.8125 -146.507812 101.28125 -146.125 C 99.757812 -145.738281 98.300781 -145.546875 96.90625 -145.546875 C 93.21875 -145.546875 90.132812 -147.007812 87.65625 -149.9375 C 85.175781 -152.863281 83.078125 -156.425781 81.359375 -160.625 C 79.640625 -164.820312 77.953125 -168.921875 76.296875 -172.921875 C 74.648438 -176.929688 72.742188 -179.953125 70.578125 -181.984375 C 68.796875 -179.066406 67.015625 -176.015625 65.234375 -172.828125 C 63.460938 -169.648438 61.972656 -165.582031 60.765625 -160.625 C 59.554688 -155.664062 58.953125 -148.863281 58.953125 -140.21875 C 58.953125 -132.832031 59.90625 -125.992188 61.8125 -119.703125 C 63.71875 -113.410156 65.878906 -107.082031 68.296875 -100.71875 C 70.710938 -94.363281 72.875 -87.59375 74.78125 -80.40625 C 76.6875 -73.21875 77.640625 -65.046875 77.640625 -55.890625 L 77.640625 0 L 40.4375 0 L 40.4375 -95.375 C 40.4375 -110.257812 41.550781 -123.488281 43.78125 -135.0625 C 46.007812 -146.632812 48.835938 -156.550781 52.265625 -164.8125 C 55.703125 -173.082031 59.265625 -179.507812 62.953125 -184.09375 C 59.265625 -184.09375 55.796875 -182.753906 52.546875 -180.078125 C 49.304688 -177.410156 46.160156 -174.164062 43.109375 -170.34375 C 40.054688 -166.53125 36.941406 -162.6875 33.765625 -158.8125 C 30.585938 -154.9375 27.25 -151.691406 23.75 -149.078125 C 20.25 -146.472656 16.46875 -145.171875 12.40625 -145.171875 C 8.332031 -145.171875 5.46875 -146.125 3.8125 -148.03125 Z M 3.8125 -190.765625 "/></g></g></g><g fill="#fcf7ef" fill-opacity="1"><g transform="translate(1133.937997, 195.120967)"><g><path d="M 6.484375 0 C 4.703125 -3.175781 3.8125 -8.070312 3.8125 -14.6875 C 3.8125 -21.175781 4.640625 -28.265625 6.296875 -35.953125 C 7.953125 -43.648438 9.859375 -51.34375 12.015625 -59.03125 C 14.179688 -66.726562 16.085938 -73.753906 17.734375 -80.109375 C 19.390625 -86.472656 20.21875 -91.5625 20.21875 -95.375 C 20.21875 -99.195312 19.390625 -104.316406 17.734375 -110.734375 C 16.085938 -117.160156 14.179688 -124.1875 12.015625 -131.8125 C 9.859375 -139.445312 7.953125 -147.109375 6.296875 -154.796875 C 4.640625 -162.492188 3.8125 -169.585938 3.8125 -176.078125 C 3.8125 -182.691406 4.703125 -187.585938 6.484375 -190.765625 L 42.34375 -190.765625 C 44.125 -187.585938 45.015625 -182.691406 45.015625 -176.078125 C 45.015625 -170.609375 44.378906 -164.628906 43.109375 -158.140625 C 41.835938 -151.660156 40.3125 -145.082031 38.53125 -138.40625 C 36.75 -131.726562 35.03125 -125.367188 33.375 -119.328125 C 31.726562 -113.285156 30.457031 -107.972656 29.5625 -103.390625 L 83.359375 -103.390625 C 82.472656 -107.972656 81.203125 -113.285156 79.546875 -119.328125 C 77.890625 -125.367188 76.171875 -131.726562 74.390625 -138.40625 C 72.617188 -145.082031 71.09375 -151.660156 69.8125 -158.140625 C 68.539062 -164.628906 67.90625 -170.609375 67.90625 -176.078125 C 67.90625 -182.691406 68.796875 -187.585938 70.578125 -190.765625 L 106.453125 -190.765625 C 108.234375 -187.585938 109.125 -182.691406 109.125 -176.078125 C 109.125 -169.585938 108.296875 -162.492188 106.640625 -154.796875 C 104.984375 -147.109375 103.070312 -139.445312 100.90625 -131.8125 C 98.75 -124.1875 96.84375 -117.160156 95.1875 -110.734375 C 93.539062 -104.316406 92.71875 -99.195312 92.71875 -95.375 C 92.71875 -91.5625 93.539062 -86.472656 95.1875 -80.109375 C 96.84375 -73.753906 98.75 -66.726562 100.90625 -59.03125 C 103.070312 -51.34375 104.984375 -43.648438 106.640625 -35.953125 C 108.296875 -28.265625 109.125 -21.175781 109.125 -14.6875 C 109.125 -8.070312 108.234375 -3.175781 106.453125 0 L 70.578125 0 C 68.796875 -3.175781 67.90625 -8.070312 67.90625 -14.6875 C 67.90625 -21.175781 68.734375 -28.265625 70.390625 -35.953125 C 72.046875 -43.648438 73.953125 -51.34375 76.109375 -59.03125 C 78.273438 -66.726562 80.179688 -73.753906 81.828125 -80.109375 C 83.484375 -86.472656 84.3125 -91.5625 84.3125 -95.375 L 28.609375 -95.375 C 28.609375 -91.5625 29.4375 -86.472656 31.09375 -80.109375 C 32.75 -73.753906 34.65625 -66.726562 36.8125 -59.03125 C 38.976562 -51.34375 40.882812 -43.648438 42.53125 -35.953125 C 44.1875 -28.265625 45.015625 -21.175781 45.015625 -14.6875 C 45.015625 -8.070312 44.125 -3.175781 42.34375 0 Z M 6.484375 0 "/></g></g></g><g fill="#fcf7ef" fill-opacity="1"><g transform="translate(1246.885787, 195.120967)"><g/></g></g></g></g><g transform="matrix(1, 0, 0, 1, 1320, 589)"><g clip-path="url(#0182f0b072)"><g fill="#e4d8c4" fill-opacity="1"><g transform="translate(10.325471, 1.566426)"><g><path d="M 27.40625 0.546875 L 27.40625 15.125 L 21.265625 15.125 C 21.140625 14.957031 21.046875 14.765625 20.984375 14.546875 C 20.929688 14.328125 20.90625 14.117188 20.90625 13.921875 C 20.90625 13.390625 21.113281 12.945312 21.53125 12.59375 C 21.957031 12.238281 22.472656 11.9375 23.078125 11.6875 C 23.679688 11.4375 24.269531 11.191406 24.84375 10.953125 C 25.414062 10.722656 25.847656 10.453125 26.140625 10.140625 C 25.722656 9.878906 25.285156 9.617188 24.828125 9.359375 C 24.367188 9.109375 23.78125 8.894531 23.0625 8.71875 C 22.351562 8.550781 21.378906 8.46875 20.140625 8.46875 C 19.078125 8.46875 18.09375 8.601562 17.1875 8.875 C 16.289062 9.15625 15.382812 9.46875 14.46875 9.8125 C 13.550781 10.15625 12.578125 10.460938 11.546875 10.734375 C 10.515625 11.015625 9.34375 11.15625 8.03125 11.15625 L 0 11.15625 L 0 5.8125 L 13.703125 5.8125 C 15.835938 5.8125 17.734375 5.96875 19.390625 6.28125 C 21.054688 6.601562 22.484375 7.007812 23.671875 7.5 C 24.859375 8 25.785156 8.515625 26.453125 9.046875 C 26.453125 8.515625 26.257812 8.015625 25.875 7.546875 C 25.488281 7.078125 25.019531 6.625 24.46875 6.1875 C 23.925781 5.75 23.375 5.300781 22.8125 4.84375 C 22.257812 4.394531 21.796875 3.914062 21.421875 3.40625 C 21.046875 2.90625 20.859375 2.363281 20.859375 1.78125 C 20.859375 1.195312 20.992188 0.785156 21.265625 0.546875 Z M 27.40625 0.546875 "/></g></g></g><g fill="#e4d8c4" fill-opacity="1"><g transform="translate(10.325471, 23.029245)"><g><path d="M 0 0.828125 L 27.40625 0.828125 L 27.40625 10.328125 C 27.40625 11.578125 27.175781 12.59375 26.71875 13.375 C 26.257812 14.15625 25.65625 14.738281 24.90625 15.125 C 24.15625 15.507812 23.34375 15.703125 22.46875 15.703125 C 21.207031 15.703125 20.144531 15.515625 19.28125 15.140625 C 18.414062 14.765625 17.695312 14.273438 17.125 13.671875 C 16.5625 13.066406 16.097656 12.429688 15.734375 11.765625 C 15.378906 11.097656 15.070312 10.460938 14.8125 9.859375 C 14.5625 9.265625 14.3125 8.78125 14.0625 8.40625 C 13.820312 8.03125 13.53125 7.84375 13.1875 7.84375 C 12.800781 7.84375 12.476562 8.03125 12.21875 8.40625 C 11.96875 8.789062 11.71875 9.285156 11.46875 9.890625 C 11.21875 10.492188 10.925781 11.128906 10.59375 11.796875 C 10.269531 12.460938 9.84375 13.097656 9.3125 13.703125 C 8.78125 14.304688 8.097656 14.800781 7.265625 15.1875 C 6.441406 15.570312 5.410156 15.765625 4.171875 15.765625 C 3.597656 15.765625 2.988281 15.726562 2.34375 15.65625 C 1.707031 15.582031 1.15625 15.503906 0.6875 15.421875 C 0.226562 15.347656 0 15.3125 0 15.3125 L 0 9.859375 C 0 9.859375 0.316406 9.9375 0.953125 10.09375 C 1.597656 10.25 2.734375 10.328125 4.359375 10.328125 C 5.742188 10.328125 6.867188 10.195312 7.734375 9.9375 C 8.609375 9.6875 9.3125 9.378906 9.84375 9.015625 C 10.382812 8.648438 10.847656 8.28125 11.234375 7.90625 C 11.617188 7.53125 12.007812 7.210938 12.40625 6.953125 C 12.8125 6.703125 13.328125 6.578125 13.953125 6.578125 C 14.921875 6.578125 15.847656 6.796875 16.734375 7.234375 C 17.617188 7.671875 18.457031 8.21875 19.25 8.875 C 20.039062 9.53125 20.785156 10.1875 21.484375 10.84375 C 22.179688 11.507812 22.832031 12.0625 23.4375 12.5 C 24.039062 12.9375 24.597656 13.15625 25.109375 13.15625 C 25.359375 13.15625 25.585938 13.050781 25.796875 12.84375 C 26.015625 12.632812 26.125 12.304688 26.125 11.859375 C 26.125 11.316406 25.988281 10.816406 25.71875 10.359375 C 25.457031 9.898438 25.128906 9.46875 24.734375 9.0625 C 24.335938 8.664062 23.945312 8.257812 23.5625 7.84375 C 23.1875 7.4375 22.863281 7.003906 22.59375 6.546875 C 22.332031 6.085938 22.203125 5.578125 22.203125 5.015625 C 22.203125 4.578125 22.28125 4.21875 22.4375 3.9375 C 22.601562 3.664062 22.765625 3.429688 22.921875 3.234375 C 23.078125 3.046875 23.15625 2.851562 23.15625 2.65625 C 23.15625 2.476562 23.078125 2.335938 22.921875 2.234375 C 22.765625 2.128906 22.5625 2.078125 22.3125 2.078125 C 21.632812 2.078125 20.90625 2.210938 20.125 2.484375 C 19.351562 2.765625 18.488281 3.109375 17.53125 3.515625 C 16.582031 3.929688 15.492188 4.335938 14.265625 4.734375 C 13.046875 5.140625 11.660156 5.476562 10.109375 5.75 C 8.554688 6.03125 6.785156 6.171875 4.796875 6.171875 L 0 6.171875 Z M 0 0.828125 "/></g></g></g><g fill="#e4d8c4" fill-opacity="1"><g transform="translate(10.325471, 44.84842)"><g><path d="M 0 5.5625 L 0 0.40625 C 1.9375 0.976562 3.703125 1.488281 5.296875 1.9375 C 6.898438 2.394531 8.421875 2.820312 9.859375 3.21875 C 11.304688 3.613281 12.75 4.003906 14.1875 4.390625 C 15.632812 4.785156 17.171875 5.210938 18.796875 5.671875 C 20.421875 6.128906 22.210938 6.640625 24.171875 7.203125 C 25.453125 7.566406 26.398438 7.925781 27.015625 8.28125 C 27.640625 8.644531 27.953125 9.15625 27.953125 9.8125 C 27.953125 10.46875 27.640625 10.957031 27.015625 11.28125 C 26.398438 11.613281 25.453125 11.960938 24.171875 12.328125 C 22.203125 12.898438 20.40625 13.410156 18.78125 13.859375 C 17.164062 14.316406 15.628906 14.742188 14.171875 15.140625 C 12.722656 15.535156 11.273438 15.925781 9.828125 16.3125 C 8.390625 16.707031 6.875 17.132812 5.28125 17.59375 C 3.695312 18.050781 1.9375 18.5625 0 19.125 L 0 13.34375 C 1.644531 12.6875 3.15625 12.203125 4.53125 11.890625 C 5.914062 11.578125 7.265625 11.421875 8.578125 11.421875 C 9.804688 11.421875 10.863281 11.476562 11.75 11.59375 L 11.75 6.546875 C 10.894531 6.617188 10.1875 6.710938 9.625 6.828125 C 9.070312 6.953125 8.554688 7.070312 8.078125 7.1875 C 7.609375 7.3125 7.082031 7.414062 6.5 7.5 C 5.925781 7.582031 5.203125 7.625 4.328125 7.625 C 3.742188 7.625 3.144531 7.519531 2.53125 7.3125 C 1.914062 7.113281 1.378906 6.851562 0.921875 6.53125 C 0.472656 6.21875 0.164062 5.894531 0 5.5625 Z M 12.90625 6.46875 L 12.90625 11.734375 C 13.894531 11.878906 14.828125 12.03125 15.703125 12.1875 C 16.578125 12.34375 17.597656 12.421875 18.765625 12.421875 C 19.804688 12.421875 20.625 12.195312 21.21875 11.75 C 21.8125 11.3125 22.109375 10.691406 22.109375 9.890625 C 22.109375 9.085938 21.867188 8.453125 21.390625 7.984375 C 20.921875 7.523438 20.300781 7.179688 19.53125 6.953125 C 18.769531 6.734375 17.941406 6.59375 17.046875 6.53125 C 16.148438 6.46875 15.289062 6.4375 14.46875 6.4375 C 14.175781 6.4375 13.898438 6.4375 13.640625 6.4375 C 13.390625 6.4375 13.144531 6.445312 12.90625 6.46875 Z M 12.90625 6.46875 "/></g></g></g><g fill="#e4d8c4" fill-opacity="1"><g transform="translate(10.325471, 70.176212)"><g><path d="M 2.6875 7.078125 C 4.570312 6.546875 6.332031 6.054688 7.96875 5.609375 C 9.601562 5.160156 11.175781 4.726562 12.6875 4.3125 C 14.207031 3.90625 15.726562 3.5 17.25 3.09375 C 18.78125 2.695312 20.367188 2.273438 22.015625 1.828125 C 23.671875 1.390625 25.46875 0.914062 27.40625 0.40625 L 27.40625 6 C 26.3125 6.40625 25.15625 6.78125 23.9375 7.125 C 22.71875 7.46875 21.5 7.75 20.28125 7.96875 C 19.070312 8.1875 17.910156 8.296875 16.796875 8.296875 C 15.316406 8.296875 14.007812 8.203125 12.875 8.015625 C 11.75 7.835938 10.722656 7.65625 9.796875 7.46875 C 8.867188 7.28125 7.976562 7.1875 7.125 7.1875 C 6.425781 7.1875 5.851562 7.304688 5.40625 7.546875 C 4.957031 7.796875 4.734375 8.222656 4.734375 8.828125 C 4.734375 9.285156 4.925781 9.675781 5.3125 10 C 5.695312 10.332031 6.195312 10.613281 6.8125 10.84375 C 7.425781 11.082031 8.078125 11.273438 8.765625 11.421875 C 9.460938 11.566406 10.128906 11.671875 10.765625 11.734375 C 11.410156 11.804688 11.953125 11.84375 12.390625 11.84375 C 13.816406 11.84375 15.078125 11.765625 16.171875 11.609375 C 17.265625 11.453125 18.296875 11.296875 19.265625 11.140625 C 20.234375 10.984375 21.226562 10.90625 22.25 10.90625 C 22.851562 10.90625 23.492188 10.976562 24.171875 11.125 C 24.847656 11.269531 25.484375 11.492188 26.078125 11.796875 C 26.671875 12.097656 27.113281 12.476562 27.40625 12.9375 L 27.40625 17.703125 C 25.46875 17.191406 23.671875 16.722656 22.015625 16.296875 C 20.367188 15.867188 18.78125 15.457031 17.25 15.0625 C 15.726562 14.664062 14.207031 14.257812 12.6875 13.84375 C 11.175781 13.4375 9.601562 13.007812 7.96875 12.5625 C 6.332031 12.113281 4.570312 11.617188 2.6875 11.078125 C 2.207031 10.941406 1.71875 10.789062 1.21875 10.625 C 0.71875 10.46875 0.300781 10.273438 -0.03125 10.046875 C -0.375 9.816406 -0.546875 9.535156 -0.546875 9.203125 C -0.546875 8.785156 -0.375 8.441406 -0.03125 8.171875 C 0.300781 7.910156 0.71875 7.695312 1.21875 7.53125 C 1.71875 7.375 2.207031 7.222656 2.6875 7.078125 Z M 2.6875 7.078125 "/></g></g></g><g fill="#e4d8c4" fill-opacity="1"><g transform="translate(10.325471, 94.07862)"><g><path d="M 13.703125 0.546875 C 15.054688 0.546875 16.40625 0.644531 17.75 0.84375 C 19.101562 1.050781 20.390625 1.382812 21.609375 1.84375 C 22.835938 2.3125 23.925781 2.925781 24.875 3.6875 C 25.832031 4.457031 26.582031 5.414062 27.125 6.5625 C 27.675781 7.707031 27.953125 9.054688 27.953125 10.609375 C 27.953125 11.535156 27.832031 12.414062 27.59375 13.25 C 27.351562 14.082031 27.082031 14.753906 26.78125 15.265625 L 21.328125 15.265625 C 21.179688 15.117188 21.050781 14.914062 20.9375 14.65625 C 20.832031 14.40625 20.78125 14.113281 20.78125 13.78125 C 20.78125 13.238281 20.925781 12.742188 21.21875 12.296875 C 21.519531 11.847656 21.894531 11.421875 22.34375 11.015625 C 22.789062 10.617188 23.238281 10.210938 23.6875 9.796875 C 24.132812 9.390625 24.507812 8.945312 24.8125 8.46875 C 25.113281 7.988281 25.265625 7.445312 25.265625 6.84375 C 25.265625 6.175781 25.019531 5.644531 24.53125 5.25 C 24.050781 4.851562 23.445312 4.65625 22.71875 4.65625 C 21.644531 4.65625 20.613281 4.8125 19.625 5.125 C 18.632812 5.4375 17.753906 5.921875 16.984375 6.578125 C 16.222656 7.234375 15.617188 8.054688 15.171875 9.046875 C 14.722656 10.046875 14.5 11.234375 14.5 12.609375 C 14.5 13.066406 14.507812 13.414062 14.53125 13.65625 C 14.5625 13.90625 14.609375 14.128906 14.671875 14.328125 C 14.734375 14.535156 14.820312 14.773438 14.9375 15.046875 L 10.1875 15.046875 C 10.039062 14.859375 9.9375 14.691406 9.875 14.546875 C 9.8125 14.398438 9.78125 14.175781 9.78125 13.875 C 9.78125 13.050781 9.960938 12.296875 10.328125 11.609375 C 10.691406 10.921875 11.179688 10.273438 11.796875 9.671875 C 12.410156 9.066406 13.097656 8.472656 13.859375 7.890625 C 14.628906 7.304688 15.425781 6.703125 16.25 6.078125 C 15.832031 6.191406 15.410156 6.28125 14.984375 6.34375 C 14.566406 6.40625 14.148438 6.4375 13.734375 6.4375 C 12.984375 6.4375 12.242188 6.34375 11.515625 6.15625 C 10.785156 5.976562 10.039062 5.773438 9.28125 5.546875 C 8.519531 5.316406 7.734375 5.109375 6.921875 4.921875 C 6.109375 4.742188 5.234375 4.65625 4.296875 4.65625 C 3.773438 4.65625 3.285156 4.851562 2.828125 5.25 C 2.367188 5.644531 2.140625 6.175781 2.140625 6.84375 C 2.140625 7.445312 2.289062 7.988281 2.59375 8.46875 C 2.894531 8.945312 3.269531 9.390625 3.71875 9.796875 C 4.164062 10.210938 4.613281 10.617188 5.0625 11.015625 C 5.507812 11.421875 5.878906 11.847656 6.171875 12.296875 C 6.472656 12.742188 6.625 13.238281 6.625 13.78125 C 6.625 14.113281 6.566406 14.40625 6.453125 14.65625 C 6.347656 14.914062 6.222656 15.117188 6.078125 15.265625 L 0.984375 15.265625 C 0.617188 14.640625 0.273438 13.9375 -0.046875 13.15625 C -0.378906 12.382812 -0.546875 11.535156 -0.546875 10.609375 C -0.546875 9.054688 -0.273438 7.707031 0.265625 6.5625 C 0.816406 5.414062 1.566406 4.457031 2.515625 3.6875 C 3.472656 2.925781 4.5625 2.3125 5.78125 1.84375 C 7.007812 1.382812 8.296875 1.050781 9.640625 0.84375 C 10.992188 0.644531 12.347656 0.546875 13.703125 0.546875 Z M 13.703125 0.546875 "/></g></g></g><g fill="#e4d8c4" fill-opacity="1"><g transform="translate(10.325471, 115.952621)"><g><path d="M 0 14.75 L 0 0.828125 L 27.40625 0.828125 L 27.40625 6.140625 C 26.238281 6.140625 25.148438 6.132812 24.140625 6.125 C 23.140625 6.113281 22.113281 6.109375 21.0625 6.109375 C 20.007812 6.109375 18.832031 6.101562 17.53125 6.09375 C 16.238281 6.082031 14.71875 6.078125 12.96875 6.078125 C 11.15625 6.078125 9.648438 5.945312 8.453125 5.6875 C 7.253906 5.425781 6.273438 5.097656 5.515625 4.703125 C 4.765625 4.304688 4.164062 3.910156 3.71875 3.515625 C 3.269531 3.128906 2.898438 2.800781 2.609375 2.53125 C 2.316406 2.269531 2.015625 2.140625 1.703125 2.140625 C 1.460938 2.140625 1.296875 2.222656 1.203125 2.390625 C 1.109375 2.566406 1.0625 2.75 1.0625 2.9375 C 1.0625 3.46875 1.210938 3.972656 1.515625 4.453125 C 1.816406 4.941406 2.191406 5.429688 2.640625 5.921875 C 3.085938 6.410156 3.53125 6.925781 3.96875 7.46875 C 4.40625 8.019531 4.773438 8.625 5.078125 9.28125 C 5.378906 9.945312 5.53125 10.679688 5.53125 11.484375 C 5.53125 12.285156 5.378906 12.972656 5.078125 13.546875 C 4.773438 14.128906 4.460938 14.53125 4.140625 14.75 Z M 0 14.75 "/></g></g></g><g fill="#e4d8c4" fill-opacity="1"><g transform="translate(10.325471, 136.757593)"><g/></g></g><g fill="#e4d8c4" fill-opacity="1"><g transform="translate(10.325471, 149.394041)"><g><path d="M 0 5.5625 L 0 0.40625 C 1.9375 0.976562 3.703125 1.488281 5.296875 1.9375 C 6.898438 2.394531 8.421875 2.820312 9.859375 3.21875 C 11.304688 3.613281 12.75 4.003906 14.1875 4.390625 C 15.632812 4.785156 17.171875 5.210938 18.796875 5.671875 C 20.421875 6.128906 22.210938 6.640625 24.171875 7.203125 C 25.453125 7.566406 26.398438 7.925781 27.015625 8.28125 C 27.640625 8.644531 27.953125 9.15625 27.953125 9.8125 C 27.953125 10.46875 27.640625 10.957031 27.015625 11.28125 C 26.398438 11.613281 25.453125 11.960938 24.171875 12.328125 C 22.203125 12.898438 20.40625 13.410156 18.78125 13.859375 C 17.164062 14.316406 15.628906 14.742188 14.171875 15.140625 C 12.722656 15.535156 11.273438 15.925781 9.828125 16.3125 C 8.390625 16.707031 6.875 17.132812 5.28125 17.59375 C 3.695312 18.050781 1.9375 18.5625 0 19.125 L 0 13.34375 C 1.644531 12.6875 3.15625 12.203125 4.53125 11.890625 C 5.914062 11.578125 7.265625 11.421875 8.578125 11.421875 C 9.804688 11.421875 10.863281 11.476562 11.75 11.59375 L 11.75 6.546875 C 10.894531 6.617188 10.1875 6.710938 9.625 6.828125 C 9.070312 6.953125 8.554688 7.070312 8.078125 7.1875 C 7.609375 7.3125 7.082031 7.414062 6.5 7.5 C 5.925781 7.582031 5.203125 7.625 4.328125 7.625 C 3.742188 7.625 3.144531 7.519531 2.53125 7.3125 C 1.914062 7.113281 1.378906 6.851562 0.921875 6.53125 C 0.472656 6.21875 0.164062 5.894531 0 5.5625 Z M 12.90625 6.46875 L 12.90625 11.734375 C 13.894531 11.878906 14.828125 12.03125 15.703125 12.1875 C 16.578125 12.34375 17.597656 12.421875 18.765625 12.421875 C 19.804688 12.421875 20.625 12.195312 21.21875 11.75 C 21.8125 11.3125 22.109375 10.691406 22.109375 9.890625 C 22.109375 9.085938 21.867188 8.453125 21.390625 7.984375 C 20.921875 7.523438 20.300781 7.179688 19.53125 6.953125 C 18.769531 6.734375 17.941406 6.59375 17.046875 6.53125 C 16.148438 6.46875 15.289062 6.4375 14.46875 6.4375 C 14.175781 6.4375 13.898438 6.4375 13.640625 6.4375 C 13.390625 6.4375 13.144531 6.445312 12.90625 6.46875 Z M 12.90625 6.46875 "/></g></g></g><g fill="#e4d8c4" fill-opacity="1"><g transform="translate(10.325471, 174.721833)"><g><path d="M -0.546875 10.21875 C -0.546875 8.664062 -0.273438 7.332031 0.265625 6.21875 C 0.816406 5.101562 1.566406 4.179688 2.515625 3.453125 C 3.472656 2.722656 4.5625 2.140625 5.78125 1.703125 C 7.007812 1.273438 8.296875 0.972656 9.640625 0.796875 C 10.992188 0.628906 12.347656 0.546875 13.703125 0.546875 C 15.054688 0.546875 16.40625 0.644531 17.75 0.84375 C 19.101562 1.050781 20.390625 1.382812 21.609375 1.84375 C 22.835938 2.3125 23.925781 2.925781 24.875 3.6875 C 25.832031 4.457031 26.582031 5.414062 27.125 6.5625 C 27.675781 7.707031 27.953125 9.054688 27.953125 10.609375 C 27.953125 11.535156 27.785156 12.382812 27.453125 13.15625 C 27.128906 13.9375 26.785156 14.640625 26.421875 15.265625 L 21.328125 15.265625 C 21.179688 15.117188 21.050781 14.914062 20.9375 14.65625 C 20.832031 14.40625 20.78125 14.113281 20.78125 13.78125 C 20.78125 13.238281 20.925781 12.742188 21.21875 12.296875 C 21.519531 11.847656 21.894531 11.421875 22.34375 11.015625 C 22.789062 10.617188 23.238281 10.210938 23.6875 9.796875 C 24.132812 9.390625 24.507812 8.945312 24.8125 8.46875 C 25.113281 7.988281 25.265625 7.445312 25.265625 6.84375 C 25.265625 6.175781 25.003906 5.597656 24.484375 5.109375 C 23.960938 4.628906 23.289062 4.390625 22.46875 4.390625 C 21.613281 4.390625 20.859375 4.492188 20.203125 4.703125 C 19.546875 4.910156 18.910156 5.144531 18.296875 5.40625 C 17.679688 5.675781 17.007812 5.914062 16.28125 6.125 C 15.5625 6.332031 14.710938 6.4375 13.734375 6.4375 C 12.742188 6.4375 11.882812 6.332031 11.15625 6.125 C 10.4375 5.914062 9.769531 5.675781 9.15625 5.40625 C 8.550781 5.144531 7.921875 4.910156 7.265625 4.703125 C 6.609375 4.492188 5.847656 4.390625 4.984375 4.390625 C 4.160156 4.398438 3.582031 4.570312 3.25 4.90625 C 2.925781 5.25 2.765625 5.625 2.765625 6.03125 C 2.765625 6.414062 2.835938 6.734375 2.984375 6.984375 C 3.128906 7.242188 3.296875 7.488281 3.484375 7.71875 C 3.679688 7.945312 3.851562 8.207031 4 8.5 C 4.144531 8.789062 4.21875 9.171875 4.21875 9.640625 C 4.21875 10.140625 4.117188 10.570312 3.921875 10.9375 C 3.722656 11.300781 3.519531 11.648438 3.3125 11.984375 C 3.113281 12.328125 3.015625 12.679688 3.015625 13.046875 C 3.015625 13.441406 3.171875 13.769531 3.484375 14.03125 L 4.296875 14.03125 C 5.335938 14.03125 6.210938 13.890625 6.921875 13.609375 C 7.640625 13.328125 8.273438 12.972656 8.828125 12.546875 C 9.390625 12.128906 9.9375 11.710938 10.46875 11.296875 C 11 10.890625 11.59375 10.546875 12.25 10.265625 C 12.90625 9.984375 13.707031 9.84375 14.65625 9.84375 C 15.15625 9.84375 15.609375 9.925781 16.015625 10.09375 C 16.429688 10.269531 16.785156 10.488281 17.078125 10.75 L 17.078125 15.3125 L 2.515625 15.3125 C 2.117188 15.1875 1.679688 14.878906 1.203125 14.390625 C 0.734375 13.910156 0.328125 13.3125 -0.015625 12.59375 C -0.367188 11.875 -0.546875 11.082031 -0.546875 10.21875 Z M -0.546875 10.21875 "/></g></g></g><g fill="#e4d8c4" fill-opacity="1"><g transform="translate(10.325471, 196.650661)"><g><path d="M 13.703125 0.546875 C 15.054688 0.546875 16.40625 0.644531 17.75 0.84375 C 19.101562 1.050781 20.390625 1.382812 21.609375 1.84375 C 22.835938 2.3125 23.925781 2.925781 24.875 3.6875 C 25.832031 4.457031 26.582031 5.414062 27.125 6.5625 C 27.675781 7.707031 27.953125 9.054688 27.953125 10.609375 C 27.953125 11.535156 27.832031 12.414062 27.59375 13.25 C 27.351562 14.082031 27.082031 14.753906 26.78125 15.265625 L 21.328125 15.265625 C 21.179688 15.117188 21.050781 14.914062 20.9375 14.65625 C 20.832031 14.40625 20.78125 14.113281 20.78125 13.78125 C 20.78125 13.238281 20.925781 12.742188 21.21875 12.296875 C 21.519531 11.847656 21.894531 11.421875 22.34375 11.015625 C 22.789062 10.617188 23.238281 10.210938 23.6875 9.796875 C 24.132812 9.390625 24.507812 8.945312 24.8125 8.46875 C 25.113281 7.988281 25.265625 7.445312 25.265625 6.84375 C 25.265625 6.175781 25.019531 5.644531 24.53125 5.25 C 24.050781 4.851562 23.445312 4.65625 22.71875 4.65625 C 21.644531 4.65625 20.613281 4.8125 19.625 5.125 C 18.632812 5.4375 17.753906 5.921875 16.984375 6.578125 C 16.222656 7.234375 15.617188 8.054688 15.171875 9.046875 C 14.722656 10.046875 14.5 11.234375 14.5 12.609375 C 14.5 13.066406 14.507812 13.414062 14.53125 13.65625 C 14.5625 13.90625 14.609375 14.128906 14.671875 14.328125 C 14.734375 14.535156 14.820312 14.773438 14.9375 15.046875 L 10.1875 15.046875 C 10.039062 14.859375 9.9375 14.691406 9.875 14.546875 C 9.8125 14.398438 9.78125 14.175781 9.78125 13.875 C 9.78125 13.050781 9.960938 12.296875 10.328125 11.609375 C 10.691406 10.921875 11.179688 10.273438 11.796875 9.671875 C 12.410156 9.066406 13.097656 8.472656 13.859375 7.890625 C 14.628906 7.304688 15.425781 6.703125 16.25 6.078125 C 15.832031 6.191406 15.410156 6.28125 14.984375 6.34375 C 14.566406 6.40625 14.148438 6.4375 13.734375 6.4375 C 12.984375 6.4375 12.242188 6.34375 11.515625 6.15625 C 10.785156 5.976562 10.039062 5.773438 9.28125 5.546875 C 8.519531 5.316406 7.734375 5.109375 6.921875 4.921875 C 6.109375 4.742188 5.234375 4.65625 4.296875 4.65625 C 3.773438 4.65625 3.285156 4.851562 2.828125 5.25 C 2.367188 5.644531 2.140625 6.175781 2.140625 6.84375 C 2.140625 7.445312 2.289062 7.988281 2.59375 8.46875 C 2.894531 8.945312 3.269531 9.390625 3.71875 9.796875 C 4.164062 10.210938 4.613281 10.617188 5.0625 11.015625 C 5.507812 11.421875 5.878906 11.847656 6.171875 12.296875 C 6.472656 12.742188 6.625 13.238281 6.625 13.78125 C 6.625 14.113281 6.566406 14.40625 6.453125 14.65625 C 6.347656 14.914062 6.222656 15.117188 6.078125 15.265625 L 0.984375 15.265625 C 0.617188 14.640625 0.273438 13.9375 -0.046875 13.15625 C -0.378906 12.382812 -0.546875 11.535156 -0.546875 10.609375 C -0.546875 9.054688 -0.273438 7.707031 0.265625 6.5625 C 0.816406 5.414062 1.566406 4.457031 2.515625 3.6875 C 3.472656 2.925781 4.5625 2.3125 5.78125 1.84375 C 7.007812 1.382812 8.296875 1.050781 9.640625 0.84375 C 10.992188 0.644531 12.347656 0.546875 13.703125 0.546875 Z M 13.703125 0.546875 "/></g></g></g><g fill="#e4d8c4" fill-opacity="1"><g transform="translate(10.325471, 218.524662)"><g><path d="M 0 6.140625 L 0 0.828125 L 27.40625 0.828125 C 27.0625 1.410156 26.789062 1.976562 26.59375 2.53125 C 26.40625 3.09375 26.3125 3.765625 26.3125 4.546875 C 26.3125 5.242188 26.390625 5.832031 26.546875 6.3125 C 26.710938 6.800781 26.90625 7.253906 27.125 7.671875 C 27.351562 8.085938 27.546875 8.519531 27.703125 8.96875 C 27.867188 9.414062 27.953125 9.953125 27.953125 10.578125 C 27.953125 11.785156 27.613281 12.765625 26.9375 13.515625 C 26.257812 14.273438 25.300781 14.828125 24.0625 15.171875 C 22.832031 15.523438 21.390625 15.703125 19.734375 15.703125 L 0 15.703125 L 0 10.359375 L 15.671875 10.359375 C 16.585938 10.359375 17.382812 10.472656 18.0625 10.703125 C 18.738281 10.929688 19.335938 11.210938 19.859375 11.546875 C 20.378906 11.890625 20.863281 12.222656 21.3125 12.546875 C 21.769531 12.878906 22.242188 13.160156 22.734375 13.390625 C 23.234375 13.617188 23.796875 13.734375 24.421875 13.734375 C 24.734375 13.734375 25.03125 13.671875 25.3125 13.546875 C 25.59375 13.429688 25.734375 13.21875 25.734375 12.90625 C 25.734375 12.582031 25.601562 12.269531 25.34375 11.96875 C 25.09375 11.675781 24.78125 11.375 24.40625 11.0625 C 24.03125 10.757812 23.65625 10.425781 23.28125 10.0625 C 22.90625 9.695312 22.585938 9.273438 22.328125 8.796875 C 22.078125 8.316406 21.953125 7.769531 21.953125 7.15625 C 21.953125 6.039062 22.253906 5.039062 22.859375 4.15625 C 23.460938 3.269531 24.320312 2.515625 25.4375 1.890625 C 24.519531 1.890625 23.632812 2.03125 22.78125 2.3125 C 21.9375 2.59375 21.085938 2.945312 20.234375 3.375 C 19.390625 3.8125 18.507812 4.238281 17.59375 4.65625 C 16.675781 5.082031 15.695312 5.4375 14.65625 5.71875 C 13.613281 6 12.472656 6.140625 11.234375 6.140625 Z M 0 6.140625 "/></g></g></g><g fill="#e4d8c4" fill-opacity="1"><g transform="translate(10.325471, 240.83724)"><g><path d="M -0.546875 10.609375 C -0.546875 9.054688 -0.273438 7.707031 0.265625 6.5625 C 0.816406 5.414062 1.566406 4.457031 2.515625 3.6875 C 3.472656 2.925781 4.5625 2.3125 5.78125 1.84375 C 7.007812 1.382812 8.296875 1.050781 9.640625 0.84375 C 10.992188 0.644531 12.347656 0.546875 13.703125 0.546875 C 15.054688 0.546875 16.40625 0.644531 17.75 0.84375 C 19.101562 1.050781 20.390625 1.382812 21.609375 1.84375 C 22.835938 2.3125 23.925781 2.925781 24.875 3.6875 C 25.832031 4.457031 26.582031 5.414062 27.125 6.5625 C 27.675781 7.707031 27.953125 9.054688 27.953125 10.609375 C 27.953125 11.535156 27.785156 12.382812 27.453125 13.15625 C 27.128906 13.9375 26.785156 14.640625 26.421875 15.265625 L 21.328125 15.265625 C 21.179688 15.117188 21.050781 14.914062 20.9375 14.65625 C 20.832031 14.40625 20.78125 14.113281 20.78125 13.78125 C 20.78125 13.238281 20.925781 12.742188 21.21875 12.296875 C 21.519531 11.847656 21.894531 11.421875 22.34375 11.015625 C 22.789062 10.617188 23.238281 10.210938 23.6875 9.796875 C 24.132812 9.390625 24.507812 8.945312 24.8125 8.46875 C 25.113281 7.988281 25.265625 7.445312 25.265625 6.84375 C 25.265625 6.175781 25.035156 5.644531 24.578125 5.25 C 24.117188 4.851562 23.628906 4.65625 23.109375 4.65625 C 22.171875 4.65625 21.296875 4.742188 20.484375 4.921875 C 19.671875 5.109375 18.882812 5.316406 18.125 5.546875 C 17.363281 5.773438 16.625 5.976562 15.90625 6.15625 C 15.1875 6.34375 14.460938 6.4375 13.734375 6.4375 C 12.984375 6.4375 12.242188 6.34375 11.515625 6.15625 C 10.785156 5.976562 10.039062 5.773438 9.28125 5.546875 C 8.519531 5.316406 7.734375 5.109375 6.921875 4.921875 C 6.109375 4.742188 5.234375 4.65625 4.296875 4.65625 C 3.773438 4.65625 3.285156 4.851562 2.828125 5.25 C 2.367188 5.644531 2.140625 6.175781 2.140625 6.84375 C 2.140625 7.445312 2.289062 7.988281 2.59375 8.46875 C 2.894531 8.945312 3.269531 9.390625 3.71875 9.796875 C 4.164062 10.210938 4.613281 10.617188 5.0625 11.015625 C 5.507812 11.421875 5.878906 11.847656 6.171875 12.296875 C 6.472656 12.742188 6.625 13.238281 6.625 13.78125 C 6.625 14.113281 6.566406 14.40625 6.453125 14.65625 C 6.347656 14.914062 6.222656 15.117188 6.078125 15.265625 L 0.984375 15.265625 C 0.617188 14.640625 0.273438 13.9375 -0.046875 13.15625 C -0.378906 12.382812 -0.546875 11.535156 -0.546875 10.609375 Z M -0.546875 10.609375 "/></g></g></g><g fill="#e4d8c4" fill-opacity="1"><g transform="translate(10.325471, 262.711241)"><g><path d="M 13.703125 0.828125 L 27.40625 0.828125 L 27.40625 5.59375 C 27.164062 5.789062 26.847656 5.96875 26.453125 6.125 C 26.066406 6.28125 25.582031 6.359375 25 6.359375 C 23.9375 6.359375 22.945312 6.21875 22.03125 5.9375 C 21.125 5.664062 20.257812 5.320312 19.4375 4.90625 C 18.625 4.5 17.84375 4.085938 17.09375 3.671875 C 16.351562 3.265625 15.613281 2.925781 14.875 2.65625 C 14.132812 2.382812 13.378906 2.25 12.609375 2.25 C 11.953125 2.25 11.421875 2.476562 11.015625 2.9375 C 10.617188 3.40625 10.421875 3.929688 10.421875 4.515625 C 10.421875 5.179688 10.460938 5.738281 10.546875 6.1875 C 10.640625 6.644531 10.726562 7.113281 10.8125 7.59375 C 10.894531 8.082031 10.9375 8.703125 10.9375 9.453125 C 10.9375 10.148438 10.816406 10.710938 10.578125 11.140625 C 10.335938 11.566406 10.066406 11.910156 9.765625 12.171875 C 9.460938 12.441406 9.191406 12.664062 8.953125 12.84375 C 8.722656 13.03125 8.609375 13.234375 8.609375 13.453125 C 8.609375 13.710938 8.710938 13.878906 8.921875 13.953125 C 9.128906 14.023438 9.378906 14.0625 9.671875 14.0625 C 10.347656 14.0625 11.101562 13.914062 11.9375 13.625 C 12.78125 13.34375 13.675781 12.992188 14.625 12.578125 C 15.582031 12.160156 16.582031 11.734375 17.625 11.296875 C 18.664062 10.867188 19.734375 10.515625 20.828125 10.234375 C 21.921875 9.953125 23.023438 9.8125 24.140625 9.8125 C 24.785156 9.8125 25.398438 9.882812 25.984375 10.03125 C 26.566406 10.175781 27.039062 10.367188 27.40625 10.609375 L 27.40625 15.296875 L 7.125 15.296875 C 5.53125 15.296875 4.234375 15.039062 3.234375 14.53125 C 2.242188 14.019531 1.46875 13.328125 0.90625 12.453125 C 0.351562 11.585938 -0.0234375 10.617188 -0.234375 9.546875 C -0.441406 8.484375 -0.546875 7.394531 -0.546875 6.28125 C -0.546875 5.21875 -0.378906 4.21875 -0.046875 3.28125 C 0.273438 2.351562 0.691406 1.570312 1.203125 0.9375 L 6.328125 0.9375 C 6.472656 1.082031 6.585938 1.304688 6.671875 1.609375 C 6.753906 1.921875 6.796875 2.234375 6.796875 2.546875 C 6.796875 3.222656 6.625 3.835938 6.28125 4.390625 C 5.945312 4.953125 5.535156 5.488281 5.046875 6 C 4.566406 6.507812 4.078125 7.003906 3.578125 7.484375 C 3.085938 7.972656 2.675781 8.476562 2.34375 9 C 2.007812 9.519531 1.84375 10.070312 1.84375 10.65625 C 1.84375 11.332031 2.078125 11.914062 2.546875 12.40625 C 3.023438 12.90625 3.601562 13.15625 4.28125 13.15625 C 4.863281 13.15625 5.304688 12.929688 5.609375 12.484375 C 5.910156 12.035156 6.132812 11.445312 6.28125 10.71875 C 6.425781 9.988281 6.566406 9.179688 6.703125 8.296875 C 6.835938 7.421875 7.023438 6.546875 7.265625 5.671875 C 7.515625 4.796875 7.878906 3.992188 8.359375 3.265625 C 8.847656 2.535156 9.519531 1.945312 10.375 1.5 C 11.238281 1.050781 12.347656 0.828125 13.703125 0.828125 Z M 13.703125 0.828125 "/></g></g></g></g></g><g transform="matrix(1, 0, 0, 1, 739, 719)"><g clip-path="url(#c0147a54e7)"><g fill="#e4d8c4" fill-opacity="1"><g transform="translate(8.838914, 177.746661)"><g><path d="M 80.5 -36.4375 C 81.394531 -38.09375 82.632812 -38.820312 84.21875 -38.625 C 85.8125 -38.4375 87.082031 -37.675781 88.03125 -36.34375 C 88.988281 -35.007812 89.023438 -33.515625 88.140625 -31.859375 C 85.585938 -27.148438 82.785156 -22.535156 79.734375 -18.015625 C 76.679688 -13.503906 73.125 -9.46875 69.0625 -5.90625 C 66.007812 -3.238281 62.445312 -1.144531 58.375 0.375 C 54.300781 1.90625 50.359375 1.460938 46.546875 -0.953125 C 44.515625 -2.222656 43.050781 -3.75 42.15625 -5.53125 C 41.269531 -7.3125 40.695312 -9.21875 40.4375 -11.25 C 38.019531 -8.582031 35.378906 -6.296875 32.515625 -4.390625 C 29.660156 -2.484375 26.578125 -1.082031 23.265625 -0.1875 C 17.546875 1.207031 12.394531 0.476562 7.8125 -2.375 C 3.238281 -5.238281 0.316406 -9.535156 -0.953125 -15.265625 C -2.484375 -22.890625 -2.007812 -30.644531 0.46875 -38.53125 C 2.957031 -46.414062 6.046875 -53.601562 9.734375 -60.09375 C 12.015625 -64.289062 14.835938 -68.421875 18.203125 -72.484375 C 21.578125 -76.554688 25.425781 -80.023438 29.75 -82.890625 C 34.082031 -85.753906 38.789062 -87.375 43.875 -87.75 C 47.050781 -88.007812 50.195312 -87.566406 53.3125 -86.421875 C 56.4375 -85.273438 59.015625 -83.492188 61.046875 -81.078125 C 61.554688 -80.566406 62 -80.023438 62.375 -79.453125 C 62.757812 -78.878906 63.078125 -78.273438 63.328125 -77.640625 C 63.960938 -78.910156 64.566406 -80.148438 65.140625 -81.359375 C 65.710938 -82.566406 66.253906 -83.804688 66.765625 -85.078125 C 67.660156 -86.859375 68.867188 -87.65625 70.390625 -87.46875 C 71.921875 -87.28125 73.191406 -86.546875 74.203125 -85.265625 C 75.222656 -83.992188 75.289062 -82.46875 74.40625 -80.6875 C 71.988281 -75.351562 69.601562 -70.015625 67.25 -64.671875 C 64.894531 -59.328125 62.570312 -53.921875 60.28125 -48.453125 C 58.5 -44.253906 56.71875 -40.054688 54.9375 -35.859375 C 53.15625 -31.660156 51.691406 -27.335938 50.546875 -22.890625 C 50.171875 -21.617188 49.757812 -19.929688 49.3125 -17.828125 C 48.863281 -15.734375 48.765625 -13.765625 49.015625 -11.921875 C 49.273438 -10.078125 50.234375 -8.835938 51.890625 -8.203125 C 53.796875 -7.566406 55.671875 -7.660156 57.515625 -8.484375 C 59.359375 -9.316406 61.101562 -10.492188 62.75 -12.015625 C 64.40625 -13.546875 65.742188 -14.882812 66.765625 -16.03125 C 69.441406 -19.082031 71.890625 -22.351562 74.109375 -25.84375 C 76.335938 -29.34375 78.46875 -32.875 80.5 -36.4375 Z M 24.796875 -10.109375 C 29.753906 -12.648438 33.953125 -16.429688 37.390625 -21.453125 C 40.828125 -26.484375 43.5625 -31.539062 45.59375 -36.625 C 45.71875 -36.75 46.191406 -37.765625 47.015625 -39.671875 C 47.847656 -41.585938 48.800781 -43.785156 49.875 -46.265625 C 50.957031 -48.742188 51.816406 -50.804688 52.453125 -52.453125 C 53.097656 -53.984375 53.738281 -55.476562 54.375 -56.9375 C 55.007812 -58.40625 55.644531 -59.898438 56.28125 -61.421875 C 56.144531 -61.929688 56.144531 -62.566406 56.28125 -63.328125 C 57.039062 -66.003906 57.132812 -68.613281 56.5625 -71.15625 C 55.988281 -73.695312 54.367188 -75.734375 51.703125 -77.265625 C 49.535156 -78.535156 47.179688 -79.039062 44.640625 -78.78125 C 42.097656 -78.53125 39.742188 -77.894531 37.578125 -76.875 C 31.734375 -73.945312 26.867188 -69.78125 22.984375 -64.375 C 19.109375 -58.976562 15.898438 -53.351562 13.359375 -47.5 C 11.953125 -44.445312 10.613281 -40.976562 9.34375 -37.09375 C 8.070312 -33.21875 7.273438 -29.304688 6.953125 -25.359375 C 6.640625 -21.421875 7.179688 -17.738281 8.578125 -14.3125 C 9.984375 -11 12.273438 -9.085938 15.453125 -8.578125 C 18.628906 -8.078125 21.742188 -8.585938 24.796875 -10.109375 Z M 24.796875 -10.109375 "/></g></g></g><g fill="#e4d8c4" fill-opacity="1"><g transform="translate(89.901025, 177.746661)"><g/></g></g><g fill="#e4d8c4" fill-opacity="1"><g transform="translate(136.249455, 177.746661)"><g><path d="M 171.3125 -144.21875 C 172.457031 -144.09375 173.472656 -143.675781 174.359375 -142.96875 C 175.242188 -142.269531 175.6875 -141.222656 175.6875 -139.828125 C 175.6875 -138.816406 175.242188 -137.800781 174.359375 -136.78125 C 173.472656 -135.757812 172.457031 -135.3125 171.3125 -135.4375 C 168 -135.820312 164.753906 -135.953125 161.578125 -135.828125 C 158.398438 -135.703125 155.222656 -135.003906 152.046875 -133.734375 C 146.191406 -131.316406 141.195312 -127.375 137.0625 -121.90625 C 132.925781 -116.4375 129.398438 -111.03125 126.484375 -105.6875 C 124.066406 -101.226562 121.742188 -96.675781 119.515625 -92.03125 C 117.285156 -87.394531 115.15625 -82.789062 113.125 -78.21875 C 111.46875 -74.53125 109.554688 -70.300781 107.390625 -65.53125 C 105.234375 -60.757812 103.296875 -56.367188 101.578125 -52.359375 C 99.859375 -48.359375 98.617188 -45.53125 97.859375 -43.875 C 95.316406 -37.894531 92.488281 -31.976562 89.375 -26.125 C 86.257812 -20.28125 82.472656 -14.878906 78.015625 -9.921875 C 75.097656 -6.484375 71.601562 -3.460938 67.53125 -0.859375 C 63.457031 1.742188 59.003906 2.984375 54.171875 2.859375 C 49.722656 2.734375 45.65625 1.558594 41.96875 -0.65625 C 38.28125 -2.882812 35.609375 -6.160156 33.953125 -10.484375 C 32.679688 -13.796875 32.203125 -17.359375 32.515625 -21.171875 C 32.835938 -24.984375 33.445312 -28.546875 34.34375 -31.859375 C 34.976562 -34.015625 35.992188 -36.9375 37.390625 -40.625 C 38.785156 -44.320312 40.3125 -48.140625 41.96875 -52.078125 C 43.625 -56.023438 45.085938 -59.488281 46.359375 -62.46875 C 47.628906 -65.457031 48.457031 -67.335938 48.84375 -68.109375 C 50.875 -72.941406 52.96875 -77.707031 55.125 -82.40625 C 57.289062 -87.113281 59.203125 -91.882812 60.859375 -96.71875 C 62.253906 -100.789062 63.457031 -105.304688 64.46875 -110.265625 C 65.488281 -115.222656 65.679688 -120.050781 65.046875 -124.75 C 64.410156 -129.457031 62.3125 -133.46875 58.75 -136.78125 C 55.832031 -139.570312 52.398438 -141.410156 48.453125 -142.296875 C 44.515625 -143.191406 40.507812 -143.320312 36.4375 -142.6875 C 32.363281 -142.050781 28.675781 -140.84375 25.375 -139.0625 C 21.175781 -136.90625 17.519531 -133.789062 14.40625 -129.71875 C 11.289062 -125.644531 9.128906 -121.160156 7.921875 -116.265625 C 6.710938 -111.367188 6.804688 -106.570312 8.203125 -101.875 C 9.347656 -98.3125 11.285156 -95.445312 14.015625 -93.28125 C 16.753906 -91.125 19.835938 -89.757812 23.265625 -89.1875 C 26.703125 -88.613281 30.101562 -88.832031 33.46875 -89.84375 C 36.84375 -90.863281 39.738281 -92.707031 42.15625 -95.375 C 43.425781 -96.90625 44.757812 -97.382812 46.15625 -96.8125 C 47.5625 -96.238281 48.613281 -95.1875 49.3125 -93.65625 C 50.007812 -92.132812 49.722656 -90.613281 48.453125 -89.09375 C 44.890625 -85.019531 40.597656 -82.316406 35.578125 -80.984375 C 30.554688 -79.648438 25.53125 -79.582031 20.5 -80.78125 C 15.476562 -81.988281 11.023438 -84.242188 7.140625 -87.546875 C 3.265625 -90.859375 0.628906 -95.1875 -0.765625 -100.53125 C -2.285156 -106.507812 -2.28125 -112.519531 -0.75 -118.5625 C 0.769531 -124.601562 3.4375 -130.164062 7.25 -135.25 C 11.0625 -140.34375 15.578125 -144.222656 20.796875 -146.890625 C 25.367188 -149.179688 30.257812 -150.675781 35.46875 -151.375 C 40.6875 -152.070312 45.804688 -151.816406 50.828125 -150.609375 C 55.859375 -149.398438 60.34375 -147.078125 64.28125 -143.640625 C 68.863281 -139.703125 71.757812 -134.9375 72.96875 -129.34375 C 74.175781 -123.75 74.363281 -117.960938 73.53125 -111.984375 C 72.707031 -106.003906 71.46875 -100.46875 69.8125 -95.375 C 68.164062 -90.164062 66.164062 -85.082031 63.8125 -80.125 C 61.457031 -75.164062 59.195312 -70.203125 57.03125 -65.234375 C 56.53125 -63.960938 55.707031 -61.992188 54.5625 -59.328125 C 53.414062 -56.660156 52.332031 -54.179688 51.3125 -51.890625 C 50.300781 -49.597656 49.726562 -48.195312 49.59375 -47.6875 C 49.46875 -47.3125 48.957031 -46.070312 48.0625 -43.96875 C 47.175781 -41.875 46.253906 -39.488281 45.296875 -36.8125 C 44.347656 -34.144531 43.554688 -31.796875 42.921875 -29.765625 C 42.160156 -27.085938 41.648438 -24.316406 41.390625 -21.453125 C 41.140625 -18.597656 41.457031 -15.898438 42.34375 -13.359375 C 43.363281 -10.679688 45.238281 -8.707031 47.96875 -7.4375 C 50.707031 -6.164062 53.539062 -5.722656 56.46875 -6.109375 C 60.40625 -6.742188 63.898438 -8.457031 66.953125 -11.25 C 70.003906 -14.050781 72.613281 -16.914062 74.78125 -19.84375 C 78.082031 -24.289062 80.972656 -28.992188 83.453125 -33.953125 C 85.941406 -38.910156 88.265625 -43.9375 90.421875 -49.03125 C 90.929688 -50.175781 91.820312 -52.175781 93.09375 -55.03125 C 94.363281 -57.894531 95.828125 -61.234375 97.484375 -65.046875 C 99.140625 -68.867188 100.820312 -72.71875 102.53125 -76.59375 C 104.25 -80.46875 105.804688 -83.929688 107.203125 -86.984375 C 110.898438 -94.992188 114.910156 -103.132812 119.234375 -111.40625 C 123.554688 -119.675781 128.957031 -126.925781 135.4375 -133.15625 C 140.40625 -137.863281 145.941406 -141.140625 152.046875 -142.984375 C 158.148438 -144.828125 164.570312 -145.238281 171.3125 -144.21875 Z M 171.3125 -144.21875 "/></g></g></g><g fill="#e4d8c4" fill-opacity="1"><g transform="translate(264.232201, 177.746661)"><g><path d="M 34.53125 -36.4375 C 35.414062 -38.09375 36.65625 -38.820312 38.25 -38.625 C 39.84375 -38.4375 41.144531 -37.675781 42.15625 -36.34375 C 43.175781 -35.007812 43.175781 -33.515625 42.15625 -31.859375 C 39.738281 -27.148438 36.972656 -22.535156 33.859375 -18.015625 C 30.742188 -13.503906 27.148438 -9.46875 23.078125 -5.90625 C 20.023438 -3.238281 16.492188 -1.144531 12.484375 0.375 C 8.484375 1.90625 4.515625 1.460938 0.578125 -0.953125 C -3.109375 -3.367188 -5.109375 -6.707031 -5.421875 -10.96875 C -5.742188 -15.226562 -5.460938 -19.203125 -4.578125 -22.890625 C -3.304688 -28.109375 -1.652344 -33.132812 0.375 -37.96875 C 2.414062 -42.800781 4.453125 -47.628906 6.484375 -52.453125 C 8.898438 -57.921875 11.285156 -63.390625 13.640625 -68.859375 C 15.992188 -74.328125 18.441406 -79.734375 20.984375 -85.078125 C 21.867188 -86.859375 23.070312 -87.65625 24.59375 -87.46875 C 26.125 -87.28125 27.398438 -86.546875 28.421875 -85.265625 C 29.441406 -83.992188 29.503906 -82.46875 28.609375 -80.6875 C 26.191406 -75.351562 23.773438 -70.015625 21.359375 -64.671875 C 18.941406 -59.328125 16.59375 -53.921875 14.3125 -48.453125 C 12.65625 -44.253906 10.9375 -40.054688 9.15625 -35.859375 C 7.375 -31.660156 5.847656 -27.335938 4.578125 -22.890625 C 4.191406 -21.617188 3.773438 -19.929688 3.328125 -17.828125 C 2.890625 -15.734375 2.828125 -13.765625 3.140625 -11.921875 C 3.460938 -10.078125 4.453125 -8.835938 6.109375 -8.203125 C 8.015625 -7.566406 9.859375 -7.660156 11.640625 -8.484375 C 13.421875 -9.316406 15.132812 -10.492188 16.78125 -12.015625 C 18.4375 -13.546875 19.773438 -14.882812 20.796875 -16.03125 C 23.585938 -19.082031 26.097656 -22.351562 28.328125 -25.84375 C 30.554688 -29.34375 32.625 -32.875 34.53125 -36.4375 Z M 38.921875 -108.546875 C 39.804688 -105.109375 38.851562 -102.3125 36.0625 -100.15625 C 34.53125 -99.007812 32.84375 -98.785156 31 -99.484375 C 29.15625 -100.179688 27.914062 -101.359375 27.28125 -103.015625 C 26.382812 -105.941406 27.144531 -108.613281 29.5625 -111.03125 C 30.195312 -111.664062 30.925781 -112.078125 31.75 -112.265625 C 32.582031 -112.453125 33.378906 -112.546875 34.140625 -112.546875 C 35.285156 -112.546875 36.300781 -112.132812 37.1875 -111.3125 C 38.082031 -110.488281 38.660156 -109.566406 38.921875 -108.546875 Z M 38.921875 -108.546875 "/></g></g></g><g fill="#e4d8c4" fill-opacity="1"><g transform="translate(299.518041, 177.746661)"><g><path d="M 63.71875 -37.015625 C 64.601562 -38.785156 65.835938 -39.578125 67.421875 -39.390625 C 69.015625 -39.203125 70.289062 -38.4375 71.25 -37.09375 C 72.207031 -35.757812 72.238281 -34.269531 71.34375 -32.625 C 69.050781 -28.164062 66.21875 -23.773438 62.84375 -19.453125 C 59.476562 -15.128906 55.664062 -11.28125 51.40625 -7.90625 C 47.144531 -4.539062 42.566406 -2 37.671875 -0.28125 C 32.773438 1.4375 27.53125 1.910156 21.9375 1.140625 C 18 0.503906 14.34375 -0.953125 10.96875 -3.234375 C 7.59375 -5.523438 5.019531 -8.515625 3.25 -12.203125 C 1.332031 -16.273438 0.3125 -20.535156 0.1875 -24.984375 C 0.0625 -29.441406 0.378906 -33.832031 1.140625 -38.15625 C 2.035156 -42.601562 3.335938 -46.925781 5.046875 -51.125 C 6.765625 -55.320312 8.769531 -59.390625 11.0625 -63.328125 C 13.226562 -67.273438 15.738281 -71.03125 18.59375 -74.59375 C 21.457031 -78.15625 24.671875 -81.207031 28.234375 -83.75 C 31.535156 -86.039062 35.285156 -87.503906 39.484375 -88.140625 C 43.679688 -88.773438 47.625 -88.132812 51.3125 -86.21875 C 55.769531 -83.9375 58.316406 -80.472656 58.953125 -75.828125 C 59.585938 -71.179688 59.078125 -66.828125 57.421875 -62.765625 C 55.003906 -56.785156 51.28125 -51.820312 46.25 -47.875 C 41.226562 -43.9375 35.601562 -41.332031 29.375 -40.0625 C 23.144531 -38.789062 16.976562 -39.109375 10.875 -41.015625 C 9.851562 -37.066406 9.21875 -32.929688 8.96875 -28.609375 C 8.84375 -25.816406 9.128906 -22.894531 9.828125 -19.84375 C 10.523438 -16.789062 11.953125 -14.179688 14.109375 -12.015625 C 16.148438 -9.984375 18.628906 -8.617188 21.546875 -7.921875 C 24.472656 -7.222656 27.335938 -7.0625 30.140625 -7.4375 C 35.359375 -8.332031 40.0625 -10.304688 44.25 -13.359375 C 48.445312 -16.410156 52.164062 -20.066406 55.40625 -24.328125 C 58.65625 -28.585938 61.425781 -32.816406 63.71875 -37.015625 Z M 24.984375 -68.484375 C 22.828125 -65.679688 20.757812 -62.691406 18.78125 -59.515625 C 16.8125 -56.335938 15.128906 -52.96875 13.734375 -49.40625 C 22.253906 -46.863281 30.332031 -48.007812 37.96875 -52.84375 C 41.019531 -54.75 43.785156 -57.289062 46.265625 -60.46875 C 48.742188 -63.644531 50.171875 -67.144531 50.546875 -70.96875 C 50.804688 -74.019531 49.914062 -76.304688 47.875 -77.828125 C 45.84375 -79.359375 43.363281 -79.867188 40.4375 -79.359375 C 37.257812 -78.972656 34.398438 -77.664062 31.859375 -75.4375 C 29.316406 -73.21875 27.023438 -70.898438 24.984375 -68.484375 Z M 24.984375 -68.484375 "/></g></g></g><g fill="#e4d8c4" fill-opacity="1"><g transform="translate(363.795516, 177.746661)"><g><path d="M 120.5625 -36.625 C 121.582031 -38.28125 122.882812 -39.007812 124.46875 -38.8125 C 126.0625 -38.625 127.332031 -37.863281 128.28125 -36.53125 C 129.238281 -35.195312 129.273438 -33.703125 128.390625 -32.046875 C 126.859375 -29.378906 124.945312 -26.234375 122.65625 -22.609375 C 120.375 -18.984375 117.769531 -15.453125 114.84375 -12.015625 C 111.914062 -8.585938 108.796875 -5.695312 105.484375 -3.34375 C 102.179688 -0.988281 98.71875 0.3125 95.09375 0.5625 C 91.46875 0.820312 87.8125 -0.507812 84.125 -3.4375 C 83.238281 -4.070312 82.828125 -5.085938 82.890625 -6.484375 C 82.953125 -7.878906 83.363281 -8.960938 84.125 -9.734375 C 85.144531 -10.617188 86.226562 -11 87.375 -10.875 C 88.519531 -10.75 89.535156 -10.367188 90.421875 -9.734375 C 92.203125 -8.460938 94.015625 -8.078125 95.859375 -8.578125 C 97.703125 -9.085938 99.484375 -10.039062 101.203125 -11.4375 C 102.921875 -12.84375 104.351562 -14.117188 105.5 -15.265625 C 108.550781 -18.316406 111.316406 -21.6875 113.796875 -25.375 C 116.273438 -29.0625 118.53125 -32.8125 120.5625 -36.625 Z M 105.6875 -64.859375 C 104.789062 -60.921875 103.578125 -57.039062 102.046875 -53.21875 C 100.523438 -49.40625 99.003906 -45.65625 97.484375 -41.96875 C 94.679688 -35.351562 91.4375 -28.613281 87.75 -21.75 C 84.0625 -14.882812 79.289062 -9.160156 73.4375 -4.578125 C 70.644531 -2.410156 67.5 -0.851562 64 0.09375 C 60.5 1.050781 57.0625 1.175781 53.6875 0.46875 C 50.320312 -0.226562 47.304688 -2.035156 44.640625 -4.953125 C 43.367188 -6.359375 42.347656 -7.882812 41.578125 -9.53125 C 40.816406 -11.1875 40.25 -12.90625 39.875 -14.6875 C 38.46875 -12.65625 36.90625 -10.78125 35.1875 -9.0625 C 33.476562 -7.34375 31.671875 -5.722656 29.765625 -4.203125 C 27.085938 -2.160156 24.03125 -0.695312 20.59375 0.1875 C 17.164062 1.082031 13.765625 1.144531 10.390625 0.375 C 7.023438 -0.382812 4.070312 -2.160156 1.53125 -4.953125 C -2.03125 -8.773438 -3.78125 -13.320312 -3.71875 -18.59375 C -3.65625 -23.875 -2.859375 -28.738281 -1.328125 -33.1875 C 0.0664062 -37.382812 1.71875 -41.550781 3.625 -45.6875 C 5.53125 -49.820312 7.375 -53.859375 9.15625 -57.796875 C 11.1875 -62.378906 13.25 -66.957031 15.34375 -71.53125 C 17.445312 -76.113281 19.519531 -80.691406 21.5625 -85.265625 C 22.0625 -86.285156 22.945312 -86.953125 24.21875 -87.265625 C 25.5 -87.585938 26.582031 -87.429688 27.46875 -86.796875 C 28.613281 -86.160156 29.3125 -85.269531 29.5625 -84.125 C 29.820312 -82.976562 29.695312 -81.832031 29.1875 -80.6875 C 27.15625 -76.113281 25.085938 -71.566406 22.984375 -67.046875 C 20.890625 -62.535156 18.820312 -57.992188 16.78125 -53.421875 C 15.257812 -49.984375 13.703125 -46.546875 12.109375 -43.109375 C 10.523438 -39.679688 9.097656 -36.3125 7.828125 -33 C 6.679688 -29.945312 5.789062 -26.351562 5.15625 -22.21875 C 4.519531 -18.09375 5.21875 -14.566406 7.25 -11.640625 C 9.15625 -9.222656 11.347656 -7.945312 13.828125 -7.8125 C 16.304688 -7.6875 18.785156 -8.257812 21.265625 -9.53125 C 23.742188 -10.8125 25.8125 -12.273438 27.46875 -13.921875 C 31.664062 -18.117188 35.226562 -22.953125 38.15625 -28.421875 C 41.082031 -33.890625 43.6875 -39.359375 45.96875 -44.828125 C 45.96875 -44.828125 46.601562 -46.289062 47.875 -49.21875 C 49.15625 -52.144531 50.71875 -55.800781 52.5625 -60.1875 C 54.40625 -64.570312 56.3125 -69.019531 58.28125 -73.53125 C 60.25 -78.050781 62 -81.960938 63.53125 -85.265625 C 64.164062 -86.285156 65.117188 -86.925781 66.390625 -87.1875 C 67.535156 -87.4375 68.582031 -87.273438 69.53125 -86.703125 C 70.488281 -86.128906 71.09375 -85.460938 71.34375 -84.703125 C 71.976562 -83.429688 71.914062 -82.09375 71.15625 -80.6875 C 69.125 -76.238281 67.148438 -71.753906 65.234375 -67.234375 C 63.328125 -62.722656 61.421875 -58.179688 59.515625 -53.609375 C 58.117188 -50.171875 56.6875 -46.703125 55.21875 -43.203125 C 53.757812 -39.710938 52.332031 -36.1875 50.9375 -32.625 C 50.175781 -30.582031 49.472656 -28.257812 48.828125 -25.65625 C 48.191406 -23.050781 47.96875 -20.472656 48.15625 -17.921875 C 48.351562 -15.378906 49.28125 -13.15625 50.9375 -11.25 C 52.84375 -8.96875 55.003906 -7.789062 57.421875 -7.71875 C 59.835938 -7.65625 62.222656 -8.257812 64.578125 -9.53125 C 66.929688 -10.8125 68.929688 -12.273438 70.578125 -13.921875 C 74.773438 -18.117188 78.335938 -22.953125 81.265625 -28.421875 C 84.191406 -33.890625 86.800781 -39.359375 89.09375 -44.828125 C 89.09375 -44.953125 89.597656 -46.253906 90.609375 -48.734375 C 91.628906 -51.210938 92.742188 -54.070312 93.953125 -57.3125 C 95.160156 -60.5625 96.082031 -63.269531 96.71875 -65.4375 C 97.351562 -67.851562 97.828125 -70.457031 98.140625 -73.25 C 98.460938 -76.050781 97.863281 -78.53125 96.34375 -80.6875 C 95.320312 -82.34375 95.253906 -83.773438 96.140625 -84.984375 C 97.035156 -86.191406 98.304688 -86.921875 99.953125 -87.171875 C 101.609375 -87.429688 102.945312 -86.796875 103.96875 -85.265625 C 106.125 -82.347656 107.140625 -79.039062 107.015625 -75.34375 C 106.890625 -71.65625 106.445312 -68.160156 105.6875 -64.859375 Z M 105.6875 -64.859375 "/></g></g></g></g></g></svg>