<svg xmlns="http://www.w3.org/2000/svg" xmlns:xlink="http://www.w3.org/1999/xlink" width="2000" zoomAndPan="magnify" viewBox="0 0 1500 1499.999933" height="2000" preserveAspectRatio="xMidYMid meet" version="1.0"><defs><g/></defs><g fill="#a95738" fill-opacity="1"><g transform="translate(132.700247, 858.164666)"><g><path d="M 9.5625 -124.34375 C 9.5625 -139.644531 11.273438 -154.507812 14.703125 -168.9375 C 18.128906 -183.363281 23.390625 -196.632812 30.484375 -208.75 C 37.578125 -220.863281 46.546875 -230.988281 57.390625 -239.125 L 158.296875 -239.125 L 158.296875 -183.640625 L 157.578125 -183.640625 C 151.359375 -193.367188 144.539062 -201.257812 137.125 -207.3125 C 129.71875 -213.375 122.066406 -218.078125 114.171875 -221.421875 C 106.285156 -224.773438 98.515625 -227.085938 90.859375 -228.359375 C 83.210938 -229.640625 76.039062 -230.28125 69.34375 -230.28125 C 65.832031 -230.28125 61.960938 -228.566406 57.734375 -225.140625 C 53.515625 -221.710938 49.453125 -216.890625 45.546875 -210.671875 C 41.640625 -204.453125 38.367188 -197 35.734375 -188.3125 C 33.109375 -179.625 31.5625 -170.019531 31.09375 -159.5 L 129.84375 -159.5 L 114.546875 -121.953125 L 113.828125 -121.953125 C 108.722656 -130.242188 100.3125 -137.097656 88.59375 -142.515625 C 76.875 -147.941406 62.566406 -150.65625 45.671875 -150.65625 L 31.09375 -150.65625 C 31.5625 -133.4375 34.347656 -117.53125 39.453125 -102.9375 C 44.554688 -88.351562 51.332031 -75.679688 59.78125 -64.921875 C 68.226562 -54.160156 77.710938 -45.832031 88.234375 -39.9375 C 98.753906 -34.039062 109.675781 -31.09375 121 -31.09375 C 129.925781 -31.09375 137.816406 -33.003906 144.671875 -36.828125 C 151.523438 -40.648438 156.863281 -45.429688 160.6875 -51.171875 L 161.40625 -51.171875 C 164.28125 -44.316406 165.078125 -37.703125 163.796875 -31.328125 C 162.523438 -24.953125 159.457031 -19.210938 154.59375 -14.109375 C 149.726562 -9.003906 143.347656 -4.976562 135.453125 -2.03125 C 127.566406 0.914062 118.523438 2.390625 108.328125 2.390625 C 96.210938 2.390625 85.050781 0.0390625 74.84375 -4.65625 C 64.644531 -9.363281 55.519531 -15.820312 47.46875 -24.03125 C 39.414062 -32.238281 32.554688 -41.722656 26.890625 -52.484375 C 21.234375 -63.242188 16.929688 -74.757812 13.984375 -87.03125 C 11.035156 -99.3125 9.5625 -111.75 9.5625 -124.34375 Z M 9.5625 -124.34375 "/></g></g></g><g fill="#a95738" fill-opacity="1"><g transform="translate(291.716096, 858.164666)"><g><path d="M 14.34375 -239.125 L 64.078125 -239.125 L 64.078125 -238.40625 C 54.992188 -229 47.582031 -218.476562 41.84375 -206.84375 C 36.101562 -195.207031 31.878906 -183.007812 29.171875 -170.25 C 26.460938 -157.5 25.109375 -144.75 25.109375 -132 C 25.109375 -119.882812 25.90625 -106.929688 27.5 -93.140625 C 29.09375 -79.347656 32.320312 -64.757812 37.1875 -49.375 C 42.050781 -33.988281 49.179688 -17.769531 58.578125 -0.71875 L 58.578125 0 L 14.34375 0 Z M 14.34375 -239.125 "/></g></g></g><g fill="#a95738" fill-opacity="1"><g transform="translate(350.539752, 858.164666)"><g><path d="M 67.90625 -61.453125 C 52.601562 -65.753906 40.523438 -71.09375 31.671875 -77.46875 C 22.828125 -83.851562 16.53125 -90.710938 12.78125 -98.046875 C 9.039062 -105.378906 7.171875 -112.550781 7.171875 -119.5625 C 7.328125 -126.894531 8.957031 -133.585938 12.0625 -139.640625 C 15.175781 -145.703125 19.125 -150.566406 23.90625 -154.234375 C 28.695312 -157.898438 33.5625 -159.734375 38.5 -159.734375 L 130.796875 -159.734375 L 130.796875 -101.625 L 129.84375 -101.625 C 125.0625 -111.507812 119.125 -119.71875 112.03125 -126.25 C 104.9375 -132.789062 97.242188 -137.929688 88.953125 -141.671875 C 80.660156 -145.421875 72.289062 -148.09375 63.84375 -149.6875 C 55.394531 -151.28125 47.582031 -152.078125 40.40625 -152.078125 C 36.738281 -152.078125 33.390625 -150.242188 30.359375 -146.578125 C 27.335938 -142.910156 25.828125 -138.769531 25.828125 -134.15625 C 25.828125 -128.570312 27.539062 -123.863281 30.96875 -120.03125 C 34.394531 -116.207031 38.859375 -112.898438 44.359375 -110.109375 C 49.859375 -107.328125 55.914062 -104.898438 62.53125 -102.828125 C 69.144531 -100.753906 75.5625 -98.679688 81.78125 -96.609375 C 89.75 -94.054688 97.320312 -91.582031 104.5 -89.1875 C 111.675781 -86.800781 118.050781 -83.929688 123.625 -80.578125 C 129.207031 -77.234375 133.59375 -72.890625 136.78125 -67.546875 C 139.96875 -62.210938 141.5625 -55.320312 141.5625 -46.875 C 141.5625 -37.144531 138.929688 -28.570312 133.671875 -21.15625 C 128.410156 -13.75 120.957031 -7.972656 111.3125 -3.828125 C 101.664062 0.316406 90.304688 2.390625 77.234375 2.390625 C 68.628906 2.390625 60.816406 1.953125 53.796875 1.078125 C 46.785156 0.203125 39.851562 -1.507812 33 -4.0625 C 26.144531 -6.613281 18.410156 -10.441406 9.796875 -15.546875 L 9.796875 -62.65625 L 10.515625 -62.65625 C 15.140625 -53.5625 20.597656 -45.585938 26.890625 -38.734375 C 33.191406 -31.878906 39.691406 -26.140625 46.390625 -21.515625 C 53.085938 -16.898438 59.460938 -13.394531 65.515625 -11 C 71.578125 -8.601562 76.679688 -7.40625 80.828125 -7.40625 C 86.242188 -7.40625 91.898438 -8.398438 97.796875 -10.390625 C 103.703125 -12.390625 108.765625 -15.257812 112.984375 -19 C 117.210938 -22.75 119.328125 -27.253906 119.328125 -32.515625 C 119.328125 -37.617188 117.929688 -41.6875 115.140625 -44.71875 C 112.347656 -47.75 108.5625 -50.140625 103.78125 -51.890625 C 99 -53.640625 93.5 -55.191406 87.28125 -56.546875 C 81.0625 -57.898438 74.601562 -59.535156 67.90625 -61.453125 Z M 67.90625 -61.453125 "/></g></g></g><g fill="#a95738" fill-opacity="1"><g transform="translate(489.23025, 858.164666)"><g><path d="M 83.9375 2.390625 C 71.019531 2.390625 59.738281 0.238281 50.09375 -4.0625 C 40.445312 -8.363281 32.472656 -14.257812 26.171875 -21.75 C 19.878906 -29.25 15.140625 -37.703125 11.953125 -47.109375 C 8.765625 -56.515625 7.171875 -66.238281 7.171875 -76.28125 C 7.171875 -86.644531 8.804688 -96.765625 12.078125 -106.640625 C 15.347656 -116.523438 19.929688 -125.492188 25.828125 -133.546875 C 31.722656 -141.597656 38.65625 -147.972656 46.625 -152.671875 C 54.59375 -157.378906 63.363281 -159.734375 72.9375 -159.734375 L 114.0625 -159.734375 C 120.125 -159.734375 125.1875 -156.34375 129.25 -149.5625 C 133.3125 -142.789062 135.34375 -133.507812 135.34375 -121.71875 C 135.34375 -107.84375 132.988281 -95.679688 128.28125 -85.234375 C 123.582031 -74.796875 116.609375 -66.664062 107.359375 -60.84375 C 98.117188 -55.03125 86.644531 -52.125 72.9375 -52.125 C 66.5625 -52.125 60.941406 -52.878906 56.078125 -54.390625 C 51.210938 -55.910156 46.945312 -57.707031 43.28125 -59.78125 C 44.394531 -50.21875 46.382812 -41.445312 49.25 -33.46875 C 52.125 -25.5 56.113281 -19.125 61.21875 -14.34375 C 66.320312 -9.5625 72.695312 -7.171875 80.34375 -7.171875 C 88.15625 -7.171875 95.128906 -8.960938 101.265625 -12.546875 C 107.398438 -16.140625 112.78125 -20.84375 117.40625 -26.65625 C 122.03125 -32.476562 126.015625 -38.738281 129.359375 -45.4375 L 130.078125 -45.4375 L 130.078125 -12.90625 C 127.054688 -9.238281 122.953125 -6.25 117.765625 -3.9375 C 112.585938 -1.632812 107.046875 -0.00390625 101.140625 0.953125 C 95.242188 1.910156 89.507812 2.390625 83.9375 2.390625 Z M 42.5625 -70.78125 C 46.382812 -69.507812 50.847656 -68.875 55.953125 -68.875 C 63.128906 -68.875 70.460938 -70.863281 77.953125 -74.84375 C 85.441406 -78.832031 92.375 -84.132812 98.75 -90.75 C 105.132812 -97.363281 110.28125 -104.773438 114.1875 -112.984375 C 118.09375 -121.191406 120.046875 -129.441406 120.046875 -137.734375 C 120.046875 -142.359375 118.769531 -145.46875 116.21875 -147.0625 C 113.664062 -148.65625 110.394531 -149.53125 106.40625 -149.6875 C 102.425781 -149.851562 98.28125 -149.9375 93.96875 -149.9375 C 86 -149.9375 78.828125 -147.898438 72.453125 -143.828125 C 66.078125 -139.765625 60.65625 -134.304688 56.1875 -127.453125 C 51.726562 -120.597656 48.34375 -112.863281 46.03125 -104.25 C 43.71875 -95.644531 42.5625 -86.878906 42.5625 -77.953125 C 42.5625 -76.835938 42.5625 -75.679688 42.5625 -74.484375 C 42.5625 -73.285156 42.5625 -72.050781 42.5625 -70.78125 Z M 42.5625 -70.78125 "/></g></g></g><g fill="#a95738" fill-opacity="1"><g transform="translate(619.312324, 858.164666)"><g><path d="M 45.4375 2.390625 C 38.101562 2.390625 32.320312 0.636719 28.09375 -2.859375 C 23.875 -6.367188 20.765625 -11.191406 18.765625 -17.328125 C 16.773438 -23.472656 15.539062 -30.367188 15.0625 -38.015625 C 14.582031 -45.671875 14.421875 -53.722656 14.578125 -62.171875 C 14.742188 -70.617188 14.828125 -78.910156 14.828125 -87.046875 L 14.828125 -159.734375 L 57.875 -159.734375 L 57.875 -159.015625 C 50.851562 -151.367188 45.191406 -143.359375 40.890625 -134.984375 C 36.585938 -126.617188 33.316406 -118.488281 31.078125 -110.59375 C 28.847656 -102.707031 27.375 -95.613281 26.65625 -89.3125 C 25.945312 -83.019531 25.59375 -78.039062 25.59375 -74.375 C 25.59375 -61.132812 28.257812 -51.445312 33.59375 -45.3125 C 38.9375 -39.175781 45.273438 -36.109375 52.609375 -36.109375 C 58.503906 -36.109375 64.640625 -37.898438 71.015625 -41.484375 C 77.390625 -45.078125 83.285156 -50.257812 88.703125 -57.03125 C 94.128906 -63.800781 98.515625 -71.96875 101.859375 -81.53125 C 105.210938 -91.101562 106.890625 -101.945312 106.890625 -114.0625 L 106.890625 -159.734375 L 149.9375 -159.734375 L 149.9375 -159.015625 C 142.914062 -151.367188 137.253906 -143.359375 132.953125 -134.984375 C 128.648438 -126.617188 125.378906 -118.488281 123.140625 -110.59375 C 120.910156 -102.707031 119.4375 -95.613281 118.71875 -89.3125 C 118.007812 -83.019531 117.65625 -78.039062 117.65625 -74.375 C 117.65625 -65.28125 119.207031 -57.820312 122.3125 -52 C 125.414062 -46.1875 129.476562 -41.84375 134.5 -38.96875 C 139.53125 -36.101562 144.992188 -34.671875 150.890625 -34.671875 C 156.941406 -34.671875 163.078125 -36.066406 169.296875 -38.859375 C 175.515625 -41.648438 181.210938 -45.796875 186.390625 -51.296875 C 191.578125 -56.796875 195.765625 -63.445312 198.953125 -71.25 C 202.140625 -79.0625 203.734375 -87.992188 203.734375 -98.046875 C 203.734375 -107.285156 202.140625 -115.648438 198.953125 -123.140625 C 195.765625 -130.640625 192.054688 -137.054688 187.828125 -142.390625 C 183.609375 -147.734375 179.90625 -151.835938 176.71875 -154.703125 C 173.53125 -157.578125 171.9375 -159.015625 171.9375 -159.015625 L 171.9375 -159.734375 L 208.28125 -159.734375 C 208.28125 -159.734375 209.351562 -158.21875 211.5 -155.1875 C 213.65625 -152.164062 215.769531 -147.144531 217.84375 -140.125 C 219.914062 -133.113281 220.953125 -123.707031 220.953125 -111.90625 C 220.953125 -102.976562 219.273438 -93.332031 215.921875 -82.96875 C 212.578125 -72.613281 208.078125 -62.410156 202.421875 -52.359375 C 196.765625 -42.316406 190.304688 -33.148438 183.046875 -24.859375 C 175.796875 -16.578125 168.265625 -9.960938 160.453125 -5.015625 C 152.640625 -0.078125 144.988281 2.390625 137.5 2.390625 C 130.476562 2.390625 124.894531 0.476562 120.75 -3.34375 C 116.613281 -7.175781 113.546875 -12.359375 111.546875 -18.890625 C 109.554688 -25.421875 108.28125 -32.75 107.71875 -40.875 C 107.164062 -49.007812 106.890625 -57.460938 106.890625 -66.234375 C 103.378906 -58.265625 99.710938 -50.253906 95.890625 -42.203125 C 92.066406 -34.148438 87.757812 -26.734375 82.96875 -19.953125 C 78.1875 -13.179688 72.726562 -7.765625 66.59375 -3.703125 C 60.457031 0.355469 53.40625 2.390625 45.4375 2.390625 Z M 45.4375 2.390625 "/></g></g></g><g fill="#a95738" fill-opacity="1"><g transform="translate(837.391283, 858.164666)"><g><path d="M 25.109375 0 L 14.34375 0 L 14.34375 -239.125 L 64.078125 -239.125 L 64.078125 -238.40625 C 51.171875 -213.0625 41.445312 -187.195312 34.90625 -160.8125 C 28.375 -134.425781 25.109375 -106.566406 25.109375 -77.234375 C 27.335938 -83.929688 30.363281 -91.101562 34.1875 -98.75 C 38.019531 -106.40625 42.445312 -113.976562 47.46875 -121.46875 C 52.488281 -128.96875 58.066406 -135.785156 64.203125 -141.921875 C 70.335938 -148.054688 76.875 -152.957031 83.8125 -156.625 C 90.75 -160.289062 97.960938 -162.125 105.453125 -162.125 C 112.785156 -162.125 118.5625 -160.367188 122.78125 -156.859375 C 127.007812 -153.359375 130.117188 -148.535156 132.109375 -142.390625 C 134.109375 -136.253906 135.347656 -129.359375 135.828125 -121.703125 C 136.304688 -114.054688 136.460938 -106.007812 136.296875 -97.5625 C 136.140625 -89.113281 136.0625 -80.820312 136.0625 -72.6875 L 136.0625 0 L 96.609375 0 L 96.609375 -0.71875 C 103.617188 -8.375 109.078125 -16.382812 112.984375 -24.75 C 116.890625 -33.113281 119.71875 -41.242188 121.46875 -49.140625 C 123.226562 -57.035156 124.304688 -64.128906 124.703125 -70.421875 C 125.097656 -76.722656 125.296875 -81.707031 125.296875 -85.375 C 125.296875 -91.269531 124.5 -97.164062 122.90625 -103.0625 C 121.3125 -108.957031 118.441406 -113.859375 114.296875 -117.765625 C 110.148438 -121.671875 104.253906 -123.625 96.609375 -123.625 C 86.722656 -123.625 77.910156 -121.148438 70.171875 -116.203125 C 62.441406 -111.265625 55.75 -104.890625 50.09375 -97.078125 C 44.4375 -89.273438 39.773438 -80.988281 36.109375 -72.21875 C 32.441406 -63.445312 29.691406 -55.15625 27.859375 -47.34375 C 26.023438 -39.53125 25.109375 -33.3125 25.109375 -28.6875 Z M 25.109375 0 "/></g></g></g><g fill="#a95738" fill-opacity="1"><g transform="translate(975.842628, 858.164666)"><g><path d="M 83.9375 2.390625 C 71.019531 2.390625 59.738281 0.238281 50.09375 -4.0625 C 40.445312 -8.363281 32.472656 -14.257812 26.171875 -21.75 C 19.878906 -29.25 15.140625 -37.703125 11.953125 -47.109375 C 8.765625 -56.515625 7.171875 -66.238281 7.171875 -76.28125 C 7.171875 -86.644531 8.804688 -96.765625 12.078125 -106.640625 C 15.347656 -116.523438 19.929688 -125.492188 25.828125 -133.546875 C 31.722656 -141.597656 38.65625 -147.972656 46.625 -152.671875 C 54.59375 -157.378906 63.363281 -159.734375 72.9375 -159.734375 L 114.0625 -159.734375 C 120.125 -159.734375 125.1875 -156.34375 129.25 -149.5625 C 133.3125 -142.789062 135.34375 -133.507812 135.34375 -121.71875 C 135.34375 -107.84375 132.988281 -95.679688 128.28125 -85.234375 C 123.582031 -74.796875 116.609375 -66.664062 107.359375 -60.84375 C 98.117188 -55.03125 86.644531 -52.125 72.9375 -52.125 C 66.5625 -52.125 60.941406 -52.878906 56.078125 -54.390625 C 51.210938 -55.910156 46.945312 -57.707031 43.28125 -59.78125 C 44.394531 -50.21875 46.382812 -41.445312 49.25 -33.46875 C 52.125 -25.5 56.113281 -19.125 61.21875 -14.34375 C 66.320312 -9.5625 72.695312 -7.171875 80.34375 -7.171875 C 88.15625 -7.171875 95.128906 -8.960938 101.265625 -12.546875 C 107.398438 -16.140625 112.78125 -20.84375 117.40625 -26.65625 C 122.03125 -32.476562 126.015625 -38.738281 129.359375 -45.4375 L 130.078125 -45.4375 L 130.078125 -12.90625 C 127.054688 -9.238281 122.953125 -6.25 117.765625 -3.9375 C 112.585938 -1.632812 107.046875 -0.00390625 101.140625 0.953125 C 95.242188 1.910156 89.507812 2.390625 83.9375 2.390625 Z M 42.5625 -70.78125 C 46.382812 -69.507812 50.847656 -68.875 55.953125 -68.875 C 63.128906 -68.875 70.460938 -70.863281 77.953125 -74.84375 C 85.441406 -78.832031 92.375 -84.132812 98.75 -90.75 C 105.132812 -97.363281 110.28125 -104.773438 114.1875 -112.984375 C 118.09375 -121.191406 120.046875 -129.441406 120.046875 -137.734375 C 120.046875 -142.359375 118.769531 -145.46875 116.21875 -147.0625 C 113.664062 -148.65625 110.394531 -149.53125 106.40625 -149.6875 C 102.425781 -149.851562 98.28125 -149.9375 93.96875 -149.9375 C 86 -149.9375 78.828125 -147.898438 72.453125 -143.828125 C 66.078125 -139.765625 60.65625 -134.304688 56.1875 -127.453125 C 51.726562 -120.597656 48.34375 -112.863281 46.03125 -104.25 C 43.71875 -95.644531 42.5625 -86.878906 42.5625 -77.953125 C 42.5625 -76.835938 42.5625 -75.679688 42.5625 -74.484375 C 42.5625 -73.285156 42.5625 -72.050781 42.5625 -70.78125 Z M 42.5625 -70.78125 "/></g></g></g><g fill="#a95738" fill-opacity="1"><g transform="translate(1105.92468, 858.164666)"><g><path d="M 57.15625 0 L 7.171875 0 L 7.171875 -0.71875 C 14.660156 -11.238281 19.800781 -23.3125 22.59375 -36.9375 C 25.382812 -50.570312 26.78125 -64.882812 26.78125 -79.875 C 26.78125 -94.851562 25.382812 -109.15625 22.59375 -122.78125 C 19.800781 -136.414062 14.660156 -148.492188 7.171875 -159.015625 L 7.171875 -159.734375 L 37.546875 -159.96875 L 37.546875 -113.34375 C 41.046875 -122.75 46.023438 -131.117188 52.484375 -138.453125 C 58.941406 -145.785156 66.515625 -151.5625 75.203125 -155.78125 C 83.890625 -160.007812 93.175781 -162.125 103.0625 -162.125 C 107.207031 -162.125 110.875 -161.925781 114.0625 -161.53125 C 117.25 -161.132812 120.597656 -160.535156 124.109375 -159.734375 L 124.109375 -110 L 123.390625 -110 C 120.835938 -115.738281 116.171875 -120.203125 109.390625 -123.390625 C 102.617188 -126.578125 95.410156 -128.171875 87.765625 -128.171875 C 78.671875 -128.171875 70.296875 -126.492188 62.640625 -123.140625 C 54.992188 -119.796875 48.898438 -115.132812 44.359375 -109.15625 C 39.816406 -103.175781 37.546875 -96.28125 37.546875 -88.46875 L 37.546875 -79.875 C 37.546875 -64.882812 38.9375 -50.570312 41.71875 -36.9375 C 44.507812 -23.3125 49.65625 -11.238281 57.15625 -0.71875 Z M 57.15625 0 "/></g></g></g><g fill="#a95738" fill-opacity="1"><g transform="translate(1224.767993, 858.164666)"><g><path d="M 83.9375 2.390625 C 71.019531 2.390625 59.738281 0.238281 50.09375 -4.0625 C 40.445312 -8.363281 32.472656 -14.257812 26.171875 -21.75 C 19.878906 -29.25 15.140625 -37.703125 11.953125 -47.109375 C 8.765625 -56.515625 7.171875 -66.238281 7.171875 -76.28125 C 7.171875 -86.644531 8.804688 -96.765625 12.078125 -106.640625 C 15.347656 -116.523438 19.929688 -125.492188 25.828125 -133.546875 C 31.722656 -141.597656 38.65625 -147.972656 46.625 -152.671875 C 54.59375 -157.378906 63.363281 -159.734375 72.9375 -159.734375 L 114.0625 -159.734375 C 120.125 -159.734375 125.1875 -156.34375 129.25 -149.5625 C 133.3125 -142.789062 135.34375 -133.507812 135.34375 -121.71875 C 135.34375 -107.84375 132.988281 -95.679688 128.28125 -85.234375 C 123.582031 -74.796875 116.609375 -66.664062 107.359375 -60.84375 C 98.117188 -55.03125 86.644531 -52.125 72.9375 -52.125 C 66.5625 -52.125 60.941406 -52.878906 56.078125 -54.390625 C 51.210938 -55.910156 46.945312 -57.707031 43.28125 -59.78125 C 44.394531 -50.21875 46.382812 -41.445312 49.25 -33.46875 C 52.125 -25.5 56.113281 -19.125 61.21875 -14.34375 C 66.320312 -9.5625 72.695312 -7.171875 80.34375 -7.171875 C 88.15625 -7.171875 95.128906 -8.960938 101.265625 -12.546875 C 107.398438 -16.140625 112.78125 -20.84375 117.40625 -26.65625 C 122.03125 -32.476562 126.015625 -38.738281 129.359375 -45.4375 L 130.078125 -45.4375 L 130.078125 -12.90625 C 127.054688 -9.238281 122.953125 -6.25 117.765625 -3.9375 C 112.585938 -1.632812 107.046875 -0.00390625 101.140625 0.953125 C 95.242188 1.910156 89.507812 2.390625 83.9375 2.390625 Z M 42.5625 -70.78125 C 46.382812 -69.507812 50.847656 -68.875 55.953125 -68.875 C 63.128906 -68.875 70.460938 -70.863281 77.953125 -74.84375 C 85.441406 -78.832031 92.375 -84.132812 98.75 -90.75 C 105.132812 -97.363281 110.28125 -104.773438 114.1875 -112.984375 C 118.09375 -121.191406 120.046875 -129.441406 120.046875 -137.734375 C 120.046875 -142.359375 118.769531 -145.46875 116.21875 -147.0625 C 113.664062 -148.65625 110.394531 -149.53125 106.40625 -149.6875 C 102.425781 -149.851562 98.28125 -149.9375 93.96875 -149.9375 C 86 -149.9375 78.828125 -147.898438 72.453125 -143.828125 C 66.078125 -139.765625 60.65625 -134.304688 56.1875 -127.453125 C 51.726562 -120.597656 48.34375 -112.863281 46.03125 -104.25 C 43.71875 -95.644531 42.5625 -86.878906 42.5625 -77.953125 C 42.5625 -76.835938 42.5625 -75.679688 42.5625 -74.484375 C 42.5625 -73.285156 42.5625 -72.050781 42.5625 -70.78125 Z M 42.5625 -70.78125 "/></g></g></g><g fill="#56644b" fill-opacity="1"><g transform="translate(150.00002, 914.942949)"><g><path d="M 2.140625 0 L 2.140625 -24 L 10.546875 -24 C 13.453125 -24 15.65625 -23.441406 17.15625 -22.328125 C 18.664062 -21.210938 19.421875 -19.578125 19.421875 -17.421875 C 19.421875 -16.242188 19.117188 -15.207031 18.515625 -14.3125 C 17.910156 -13.414062 17.070312 -12.757812 16 -12.34375 C 17.226562 -12.03125 18.195312 -11.40625 18.90625 -10.46875 C 19.613281 -9.539062 19.96875 -8.398438 19.96875 -7.046875 C 19.96875 -4.742188 19.234375 -3 17.765625 -1.8125 C 16.296875 -0.625 14.195312 -0.0195312 11.46875 0 Z M 7.09375 -10.453125 L 7.09375 -3.96875 L 11.328125 -3.96875 C 12.484375 -3.96875 13.390625 -4.242188 14.046875 -4.796875 C 14.703125 -5.359375 15.03125 -6.128906 15.03125 -7.109375 C 15.03125 -9.304688 13.894531 -10.421875 11.625 -10.453125 Z M 7.09375 -13.9375 L 10.75 -13.9375 C 13.238281 -13.976562 14.484375 -14.972656 14.484375 -16.921875 C 14.484375 -18.015625 14.164062 -18.796875 13.53125 -19.265625 C 12.90625 -19.742188 11.910156 -19.984375 10.546875 -19.984375 L 7.09375 -19.984375 Z M 7.09375 -13.9375 "/></g></g></g><g fill="#56644b" fill-opacity="1"><g transform="translate(174.973613, 914.942949)"><g><path d="M 10.421875 -13.1875 L 15.40625 -24 L 20.8125 -24 L 12.9375 -8.703125 L 12.9375 0 L 7.90625 0 L 7.90625 -8.703125 L 0.03125 -24 L 5.453125 -24 Z M 10.421875 -13.1875 "/></g></g></g><g fill="#56644b" fill-opacity="1"><g transform="translate(199.271775, 914.942949)"><g/></g></g><g fill="#56644b" fill-opacity="1"><g transform="translate(211.115768, 914.942949)"><g><path d="M 15.6875 -4.9375 L 7.015625 -4.9375 L 5.375 0 L 0.109375 0 L 9.046875 -24 L 13.625 -24 L 22.609375 0 L 17.359375 0 Z M 8.359375 -8.953125 L 14.359375 -8.953125 L 11.34375 -17.9375 Z M 8.359375 -8.953125 "/></g></g></g><g fill="#56644b" fill-opacity="1"><g transform="translate(237.258992, 914.942949)"><g><path d="M 11.015625 -5.953125 L 16.453125 -24 L 21.953125 -24 L 13.59375 0 L 8.4375 0 L 0.109375 -24 L 5.609375 -24 Z M 11.015625 -5.953125 "/></g></g></g><g fill="#56644b" fill-opacity="1"><g transform="translate(262.759745, 914.942949)"><g><path d="M 16.578125 -10.40625 L 7.09375 -10.40625 L 7.09375 -3.96875 L 18.21875 -3.96875 L 18.21875 0 L 2.140625 0 L 2.140625 -24 L 18.1875 -24 L 18.1875 -19.984375 L 7.09375 -19.984375 L 7.09375 -14.265625 L 16.578125 -14.265625 Z M 16.578125 -10.40625 "/></g></g></g><g fill="#56644b" fill-opacity="1"><g transform="translate(285.179897, 914.942949)"><g><path d="M 11.03125 -8.78125 L 7.09375 -8.78125 L 7.09375 0 L 2.140625 0 L 2.140625 -24 L 11.0625 -24 C 13.894531 -24 16.078125 -23.363281 17.609375 -22.09375 C 19.148438 -20.832031 19.921875 -19.050781 19.921875 -16.75 C 19.921875 -15.101562 19.566406 -13.734375 18.859375 -12.640625 C 18.148438 -11.554688 17.078125 -10.6875 15.640625 -10.03125 L 20.828125 -0.234375 L 20.828125 0 L 15.53125 0 Z M 7.09375 -12.78125 L 11.078125 -12.78125 C 12.316406 -12.78125 13.273438 -13.097656 13.953125 -13.734375 C 14.640625 -14.367188 14.984375 -15.238281 14.984375 -16.34375 C 14.984375 -17.476562 14.660156 -18.367188 14.015625 -19.015625 C 13.367188 -19.660156 12.382812 -19.984375 11.0625 -19.984375 L 7.09375 -19.984375 Z M 7.09375 -12.78125 "/></g></g></g><g fill="#56644b" fill-opacity="1"><g transform="translate(310.15349, 914.942949)"><g><path d="M 10.421875 -13.1875 L 15.40625 -24 L 20.8125 -24 L 12.9375 -8.703125 L 12.9375 0 L 7.90625 0 L 7.90625 -8.703125 L 0.03125 -24 L 5.453125 -24 Z M 10.421875 -13.1875 "/></g></g></g><g fill="#56644b" fill-opacity="1"><g transform="translate(1058.142827, 914.942949)"><g><path d="M 20.203125 -19.984375 L 12.859375 -19.984375 L 12.859375 0 L 7.90625 0 L 7.90625 -19.984375 L 0.65625 -19.984375 L 0.65625 -24 L 20.203125 -24 Z M 20.203125 -19.984375 "/></g></g></g><g fill="#56644b" fill-opacity="1"><g transform="translate(1082.457469, 914.942949)"><g><path d="M 11.03125 -8.78125 L 7.09375 -8.78125 L 7.09375 0 L 2.140625 0 L 2.140625 -24 L 11.0625 -24 C 13.894531 -24 16.078125 -23.363281 17.609375 -22.09375 C 19.148438 -20.832031 19.921875 -19.050781 19.921875 -16.75 C 19.921875 -15.101562 19.566406 -13.734375 18.859375 -12.640625 C 18.148438 -11.554688 17.078125 -10.6875 15.640625 -10.03125 L 20.828125 -0.234375 L 20.828125 0 L 15.53125 0 Z M 7.09375 -12.78125 L 11.078125 -12.78125 C 12.316406 -12.78125 13.273438 -13.097656 13.953125 -13.734375 C 14.640625 -14.367188 14.984375 -15.238281 14.984375 -16.34375 C 14.984375 -17.476562 14.660156 -18.367188 14.015625 -19.015625 C 13.367188 -19.660156 12.382812 -19.984375 11.0625 -19.984375 L 7.09375 -19.984375 Z M 7.09375 -12.78125 "/></g></g></g><g fill="#56644b" fill-opacity="1"><g transform="translate(1107.431061, 914.942949)"><g><path d="M 15.6875 -4.9375 L 7.015625 -4.9375 L 5.375 0 L 0.109375 0 L 9.046875 -24 L 13.625 -24 L 22.609375 0 L 17.359375 0 Z M 8.359375 -8.953125 L 14.359375 -8.953125 L 11.34375 -17.9375 Z M 8.359375 -8.953125 "/></g></g></g><g fill="#56644b" fill-opacity="1"><g transform="translate(1133.574285, 914.942949)"><g><path d="M 11.015625 -5.953125 L 16.453125 -24 L 21.953125 -24 L 13.59375 0 L 8.4375 0 L 0.109375 -24 L 5.609375 -24 Z M 11.015625 -5.953125 "/></g></g></g><g fill="#56644b" fill-opacity="1"><g transform="translate(1159.075038, 914.942949)"><g><path d="M 16.578125 -10.40625 L 7.09375 -10.40625 L 7.09375 -3.96875 L 18.21875 -3.96875 L 18.21875 0 L 2.140625 0 L 2.140625 -24 L 18.1875 -24 L 18.1875 -19.984375 L 7.09375 -19.984375 L 7.09375 -14.265625 L 16.578125 -14.265625 Z M 16.578125 -10.40625 "/></g></g></g><g fill="#56644b" fill-opacity="1"><g transform="translate(1181.495191, 914.942949)"><g><path d="M 7.09375 -3.96875 L 17.578125 -3.96875 L 17.578125 0 L 2.140625 0 L 2.140625 -24 L 7.09375 -24 Z M 7.09375 -3.96875 "/></g></g></g><g fill="#56644b" fill-opacity="1"><g transform="translate(1203.206977, 914.942949)"><g/></g></g><g fill="#56644b" fill-opacity="1"><g transform="translate(1215.05097, 914.942949)"><g><path d="M 15.6875 -4.9375 L 7.015625 -4.9375 L 5.375 0 L 0.109375 0 L 9.046875 -24 L 13.625 -24 L 22.609375 0 L 17.359375 0 Z M 8.359375 -8.953125 L 14.359375 -8.953125 L 11.34375 -17.9375 Z M 8.359375 -8.953125 "/></g></g></g><g fill="#56644b" fill-opacity="1"><g transform="translate(1241.194194, 914.942949)"><g><path d="M 21.125 -3.03125 C 20.238281 -1.96875 18.976562 -1.140625 17.34375 -0.546875 C 15.71875 0.0351562 13.921875 0.328125 11.953125 0.328125 C 9.867188 0.328125 8.046875 -0.125 6.484375 -1.03125 C 4.921875 -1.9375 3.710938 -3.25 2.859375 -4.96875 C 2.003906 -6.695312 1.566406 -8.726562 1.546875 -11.0625 L 1.546875 -12.6875 C 1.546875 -15.082031 1.945312 -17.15625 2.75 -18.90625 C 3.5625 -20.65625 4.726562 -21.992188 6.25 -22.921875 C 7.769531 -23.859375 9.554688 -24.328125 11.609375 -24.328125 C 14.453125 -24.328125 16.675781 -23.644531 18.28125 -22.28125 C 19.882812 -20.925781 20.832031 -18.953125 21.125 -16.359375 L 16.3125 -16.359375 C 16.09375 -17.734375 15.609375 -18.738281 14.859375 -19.375 C 14.109375 -20.007812 13.070312 -20.328125 11.75 -20.328125 C 10.070312 -20.328125 8.789062 -19.695312 7.90625 -18.4375 C 7.03125 -17.175781 6.585938 -15.296875 6.578125 -12.796875 L 6.578125 -11.265625 C 6.578125 -8.753906 7.050781 -6.851562 8 -5.5625 C 8.957031 -4.28125 10.363281 -3.640625 12.21875 -3.640625 C 14.070312 -3.640625 15.394531 -4.035156 16.1875 -4.828125 L 16.1875 -8.96875 L 11.6875 -8.96875 L 11.6875 -12.609375 L 21.125 -12.609375 Z M 21.125 -3.03125 "/></g></g></g><g fill="#56644b" fill-opacity="1"><g transform="translate(1267.617479, 914.942949)"><g><path d="M 16.578125 -10.40625 L 7.09375 -10.40625 L 7.09375 -3.96875 L 18.21875 -3.96875 L 18.21875 0 L 2.140625 0 L 2.140625 -24 L 18.1875 -24 L 18.1875 -19.984375 L 7.09375 -19.984375 L 7.09375 -14.265625 L 16.578125 -14.265625 Z M 16.578125 -10.40625 "/></g></g></g><g fill="#56644b" fill-opacity="1"><g transform="translate(1290.037643, 914.942949)"><g><path d="M 21.65625 0 L 16.703125 0 L 7.09375 -15.78125 L 7.09375 0 L 2.140625 0 L 2.140625 -24 L 7.09375 -24 L 16.734375 -8.171875 L 16.734375 -24 L 21.65625 -24 Z M 21.65625 0 "/></g></g></g><g fill="#56644b" fill-opacity="1"><g transform="translate(1317.301083, 914.942949)"><g><path d="M 20.984375 -8 C 20.796875 -5.414062 19.84375 -3.378906 18.125 -1.890625 C 16.40625 -0.410156 14.140625 0.328125 11.328125 0.328125 C 8.242188 0.328125 5.820312 -0.707031 4.0625 -2.78125 C 2.300781 -4.851562 1.421875 -7.695312 1.421875 -11.3125 L 1.421875 -12.765625 C 1.421875 -15.078125 1.828125 -17.109375 2.640625 -18.859375 C 3.453125 -20.617188 4.613281 -21.96875 6.125 -22.90625 C 7.632812 -23.851562 9.390625 -24.328125 11.390625 -24.328125 C 14.160156 -24.328125 16.390625 -23.582031 18.078125 -22.09375 C 19.765625 -20.613281 20.742188 -18.535156 21.015625 -15.859375 L 16.0625 -15.859375 C 15.945312 -17.398438 15.515625 -18.519531 14.765625 -19.21875 C 14.023438 -19.914062 12.898438 -20.265625 11.390625 -20.265625 C 9.742188 -20.265625 8.507812 -19.675781 7.6875 -18.5 C 6.863281 -17.320312 6.441406 -15.488281 6.421875 -13 L 6.421875 -11.1875 C 6.421875 -8.59375 6.8125 -6.695312 7.59375 -5.5 C 8.382812 -4.300781 9.628906 -3.703125 11.328125 -3.703125 C 12.847656 -3.703125 13.984375 -4.050781 14.734375 -4.75 C 15.492188 -5.445312 15.925781 -6.53125 16.03125 -8 Z M 20.984375 -8 "/></g></g></g><g fill="#56644b" fill-opacity="1"><g transform="translate(1342.818293, 914.942949)"><g><path d="M 10.421875 -13.1875 L 15.40625 -24 L 20.8125 -24 L 12.9375 -8.703125 L 12.9375 0 L 7.90625 0 L 7.90625 -8.703125 L 0.03125 -24 L 5.453125 -24 Z M 10.421875 -13.1875 "/></g></g></g></svg>