<svg xmlns="http://www.w3.org/2000/svg" xmlns:xlink="http://www.w3.org/1999/xlink" width="2000" zoomAndPan="magnify" viewBox="0 0 1500 1499.999933" height="2000" preserveAspectRatio="xMidYMid meet" version="1.0"><defs><g/><clipPath id="698bde98a5"><rect x="0" width="938" y="0" height="853"/></clipPath><clipPath id="a937dcb41c"><path d="M 593.933594 1037.757812 L 1208.003906 1037.757812 L 1208.003906 1087.128906 L 593.933594 1087.128906 Z M 593.933594 1037.757812 " clip-rule="nonzero"/></clipPath><clipPath id="b8d59bb377"><path d="M 0.933594 0.757812 L 615 0.757812 L 615 50.128906 L 0.933594 50.128906 Z M 0.933594 0.757812 " clip-rule="nonzero"/></clipPath><clipPath id="04466073e9"><rect x="0" width="616" y="0" height="51"/></clipPath><clipPath id="d297413dde"><rect x="0" width="268" y="0" height="65"/></clipPath></defs><g transform="matrix(1, 0, 0, 1, 283, 404)"><g clip-path="url(#698bde98a5)"><g fill="#fcf7ef" fill-opacity="1"><g transform="translate(4.499134, 616.957268)"><g><path d="M 10.046875 0 L 10.046875 -525.734375 L 76.9375 -525.734375 L 76.9375 -498.6875 L 42.90625 -498.6875 L 42.90625 -273.3125 L 69.578125 -273.3125 L 69.578125 -249.34375 L 42.90625 -249.34375 L 42.90625 -26.28125 L 76.9375 -26.28125 L 76.9375 0 Z M 10.046875 0 "/></g></g></g><g fill="#fcf7ef" fill-opacity="1"><g transform="translate(90.487166, 616.957268)"><g><path d="M 10.046875 0 L 10.046875 -525.734375 L 42.53125 -525.734375 L 42.53125 -27.453125 L 69.578125 -27.453125 L 69.578125 0 Z M 10.046875 0 "/></g></g></g><g fill="#fcf7ef" fill-opacity="1"><g transform="translate(172.6094, 616.957268)"><g><path d="M 52.578125 4.640625 C 37.367188 4.640625 26.476562 1.289062 19.90625 -5.40625 C 13.332031 -12.113281 10.046875 -21.265625 10.046875 -32.859375 L 10.046875 -175.890625 L 40.984375 -175.890625 L 40.984375 -32.859375 C 40.984375 -25.390625 44.585938 -21.65625 51.796875 -21.65625 C 59.015625 -21.65625 62.625 -25.390625 62.625 -32.859375 C 62.625 -49.347656 62.429688 -64.9375 62.046875 -79.625 C 61.660156 -94.320312 61.207031 -108.113281 60.6875 -121 C 59.144531 -147.800781 57.148438 -171.316406 54.703125 -191.546875 C 52.253906 -211.773438 49.484375 -229.75 46.390625 -245.46875 C 43.296875 -261.195312 40.070312 -275.628906 36.71875 -288.765625 C 33.375 -301.910156 30.085938 -314.601562 26.859375 -326.84375 C 23.640625 -339.09375 20.804688 -351.984375 18.359375 -365.515625 C 15.910156 -379.046875 13.910156 -393.992188 12.359375 -410.359375 C 10.816406 -426.722656 10.046875 -445.597656 10.046875 -466.984375 L 10.046875 -492.5 C 10.304688 -517.488281 24.097656 -529.984375 51.421875 -529.984375 C 65.335938 -529.984375 75.773438 -526.765625 82.734375 -520.328125 C 89.691406 -513.890625 93.171875 -504.613281 93.171875 -492.5 L 93.171875 -385.421875 L 62.625 -385.421875 L 62.625 -492.5 C 62.625 -499.976562 59.015625 -503.71875 51.796875 -503.71875 C 44.585938 -503.71875 40.984375 -499.976562 40.984375 -492.5 C 40.984375 -470.851562 41.753906 -451.140625 43.296875 -433.359375 C 44.835938 -411.191406 47.15625 -391.410156 50.25 -374.015625 C 53.34375 -356.617188 56.757812 -340.125 60.5 -324.53125 C 64.238281 -308.9375 68.039062 -293.019531 71.90625 -276.78125 C 75.769531 -260.550781 79.375 -242.640625 82.71875 -223.046875 C 86.070312 -203.460938 88.710938 -180.914062 90.640625 -155.40625 C 92.578125 -129.894531 93.546875 -99.867188 93.546875 -65.328125 L 93.546875 -32.09375 C 93.546875 -19.976562 89.9375 -10.828125 82.71875 -4.640625 C 75.507812 1.542969 65.460938 4.640625 52.578125 4.640625 Z M 52.578125 4.640625 "/></g></g></g><g fill="#fcf7ef" fill-opacity="1"><g transform="translate(283.338551, 616.957268)"><g><path d="M 10.046875 0 L 10.046875 -525.734375 L 76.9375 -525.734375 L 76.9375 -498.6875 L 42.90625 -498.6875 L 42.90625 -273.3125 L 69.578125 -273.3125 L 69.578125 -249.34375 L 42.90625 -249.34375 L 42.90625 -26.28125 L 76.9375 -26.28125 L 76.9375 0 Z M 10.046875 0 "/></g></g></g><g fill="#fcf7ef" fill-opacity="1"><g transform="translate(369.326584, 616.957268)"><g><path d="M 4.25 -525.734375 L 36.71875 -525.734375 L 47.9375 -107.078125 L 49.875 -107.078125 L 60.6875 -525.734375 L 102.4375 -525.734375 L 113.65625 -107.078125 L 115.59375 -107.078125 L 126.40625 -525.734375 L 159.265625 -525.734375 L 136.84375 0 L 94.328125 0 L 82.34375 -402.8125 L 80.796875 -402.8125 L 69.203125 0 L 26.28125 0 Z M 4.25 -525.734375 "/></g></g></g><g fill="#fcf7ef" fill-opacity="1"><g transform="translate(539.97567, 616.957268)"><g><path d="M 10.046875 0 L 10.046875 -525.734375 L 42.140625 -525.734375 L 42.140625 -275.625 L 63.78125 -275.625 L 63.78125 -525.734375 L 96.265625 -525.734375 L 96.265625 0 L 63.78125 0 L 63.78125 -248.953125 L 42.140625 -248.953125 L 42.140625 0 Z M 10.046875 0 "/></g></g></g><g fill="#fcf7ef" fill-opacity="1"><g transform="translate(653.410913, 616.957268)"><g><path d="M 10.046875 0 L 10.046875 -525.734375 L 76.9375 -525.734375 L 76.9375 -498.6875 L 42.90625 -498.6875 L 42.90625 -273.3125 L 69.578125 -273.3125 L 69.578125 -249.34375 L 42.90625 -249.34375 L 42.90625 -26.28125 L 76.9375 -26.28125 L 76.9375 0 Z M 10.046875 0 "/></g></g></g><g fill="#fcf7ef" fill-opacity="1"><g transform="translate(739.398946, 616.957268)"><g><path d="M 95.09375 -246.640625 C 95.09375 -233.234375 91.488281 -223.179688 84.28125 -216.484375 L 94.71875 0 L 63.40625 0 L 55.671875 -207.203125 L 41.75 -207.203125 L 41.75 0 L 10.046875 0 L 10.046875 -525.734375 L 52.1875 -525.734375 C 65.84375 -525.734375 76.40625 -522.835938 83.875 -517.046875 C 91.351562 -511.253906 95.09375 -501.398438 95.09375 -487.484375 Z M 52.578125 -231.953125 C 59.796875 -231.953125 63.40625 -236.71875 63.40625 -246.25 L 63.40625 -487.09375 C 63.40625 -495.082031 59.796875 -499.078125 52.578125 -499.078125 L 41.75 -499.078125 L 41.75 -231.953125 Z M 52.578125 -231.953125 "/></g></g></g><g fill="#fcf7ef" fill-opacity="1"><g transform="translate(850.514708, 616.957268)"><g><path d="M 10.046875 0 L 10.046875 -525.734375 L 76.9375 -525.734375 L 76.9375 -498.6875 L 42.90625 -498.6875 L 42.90625 -273.3125 L 69.578125 -273.3125 L 69.578125 -249.34375 L 42.90625 -249.34375 L 42.90625 -26.28125 L 76.9375 -26.28125 L 76.9375 0 Z M 10.046875 0 "/></g></g></g></g></g><g clip-path="url(#a937dcb41c)"><g transform="matrix(1, 0, 0, 1, 593, 1037)"><g clip-path="url(#04466073e9)"><g clip-path="url(#b8d59bb377)"><path fill="#fcf7ef" d="M 0.933594 0.757812 L 614.988281 0.757812 L 614.988281 50.128906 L 0.933594 50.128906 Z M 0.933594 0.757812 " fill-opacity="1" fill-rule="nonzero"/></g></g></g></g><g transform="matrix(1, 0, 0, 1, 312, 1032)"><g clip-path="url(#d297413dde)"><g fill="#fcf7ef" fill-opacity="1"><g transform="translate(0.0000064764, 49.910625)"><g><path d="M 28.34375 -20.125 C 30.664062 -19.445312 32.378906 -18.347656 33.484375 -16.828125 C 34.597656 -15.304688 35.15625 -13.414062 35.15625 -11.15625 C 35.15625 -8.875 34.617188 -6.953125 33.546875 -5.390625 C 32.472656 -3.835938 31.117188 -2.640625 29.484375 -1.796875 C 27.859375 -0.953125 26.207031 -0.425781 24.53125 -0.21875 C 23.59375 -0.101562 22.738281 -0.0351562 21.96875 -0.015625 C 21.207031 -0.00390625 20.234375 0 19.046875 0 L 4.296875 0 L 4.296875 -37.03125 L 19.484375 -37.03125 C 20.484375 -37.03125 21.285156 -37.019531 21.890625 -37 C 22.503906 -36.988281 23.273438 -36.925781 24.203125 -36.8125 C 27.285156 -36.457031 29.648438 -35.398438 31.296875 -33.640625 C 32.941406 -31.890625 33.765625 -29.800781 33.765625 -27.375 C 33.765625 -25.6875 33.316406 -24.21875 32.421875 -22.96875 C 31.523438 -21.71875 30.164062 -20.769531 28.34375 -20.125 Z M 13.953125 -29.515625 L 13.953125 -22.4375 L 18.296875 -22.4375 C 19.191406 -22.4375 19.976562 -22.488281 20.65625 -22.59375 C 21.550781 -22.738281 22.273438 -23.0625 22.828125 -23.5625 C 23.390625 -24.0625 23.671875 -24.867188 23.671875 -25.984375 C 23.671875 -27.015625 23.410156 -27.796875 22.890625 -28.328125 C 22.367188 -28.867188 21.644531 -29.210938 20.71875 -29.359375 C 20.039062 -29.460938 19.234375 -29.515625 18.296875 -29.515625 Z M 21.578125 -7.5625 C 22.429688 -7.632812 23.222656 -8 23.953125 -8.65625 C 24.691406 -9.320312 25.0625 -10.265625 25.0625 -11.484375 C 25.0625 -12.734375 24.6875 -13.679688 23.9375 -14.328125 C 23.1875 -14.972656 22.3125 -15.332031 21.3125 -15.40625 C 20.945312 -15.4375 20.554688 -15.453125 20.140625 -15.453125 C 19.734375 -15.453125 19.316406 -15.453125 18.890625 -15.453125 L 13.953125 -15.453125 L 13.953125 -7.515625 L 19.15625 -7.515625 C 19.59375 -7.515625 20.015625 -7.515625 20.421875 -7.515625 C 20.835938 -7.515625 21.222656 -7.53125 21.578125 -7.5625 Z M 21.578125 -7.5625 "/></g></g></g><g fill="#fcf7ef" fill-opacity="1"><g transform="translate(36.526093, 49.910625)"><g><path d="M 23.453125 -14.171875 L 23.453125 0 L 13.796875 0 L 13.796875 -14.171875 L 0.75 -37.03125 L 11.59375 -37.03125 L 18.890625 -22.375 L 25.921875 -37.03125 L 36.5 -37.03125 Z M 23.453125 -14.171875 "/></g></g></g><g fill="#fcf7ef" fill-opacity="1"><g transform="translate(72.086708, 49.910625)"><g/></g></g><g fill="#fcf7ef" fill-opacity="1"><g transform="translate(81.526651, 49.910625)"><g><path d="M 25.125 -9.609375 L 13.578125 -9.609375 L 10.46875 0 L 0.21875 0 L 13.578125 -37.03125 L 25.390625 -37.03125 L 38.75 0 L 28.234375 0 Z M 19.375 -28.5 L 15.9375 -17.125 L 22.8125 -17.125 Z M 19.375 -28.5 "/></g></g></g><g fill="#fcf7ef" fill-opacity="1"><g transform="translate(119.447252, 49.910625)"><g><path d="M 26.890625 0 L 15.078125 0 L 1.71875 -37.03125 L 12.234375 -37.03125 L 21.09375 -7.453125 L 30 -37.03125 L 40.25 -37.03125 Z M 26.890625 0 "/></g></g></g><g fill="#fcf7ef" fill-opacity="1"><g transform="translate(159.245102, 49.910625)"><g><path d="M 32.6875 -7.515625 L 32.6875 0 L 4.296875 0 L 4.296875 -37.03125 L 32.15625 -37.03125 L 32.15625 -29.515625 L 13.953125 -29.515625 L 13.953125 -22.328125 L 31.078125 -22.328125 L 31.078125 -14.8125 L 13.953125 -14.8125 L 13.953125 -7.515625 Z M 32.6875 -7.515625 "/></g></g></g><g fill="#fcf7ef" fill-opacity="1"><g transform="translate(193.518482, 49.910625)"><g><path d="M 33.171875 -9.015625 C 33.421875 -6.941406 33.769531 -5.195312 34.21875 -3.78125 C 34.664062 -2.363281 35.242188 -1.101562 35.953125 0 L 25.4375 0 C 25.007812 -1.320312 24.660156 -2.554688 24.390625 -3.703125 C 24.117188 -4.847656 23.894531 -6.082031 23.71875 -7.40625 C 23.46875 -9.445312 22.957031 -11.039062 22.1875 -12.1875 C 21.425781 -13.332031 20.414062 -13.941406 19.15625 -14.015625 C 18.625 -14.046875 18.113281 -14.0625 17.625 -14.0625 C 17.144531 -14.0625 16.632812 -14.0625 16.09375 -14.0625 L 13.953125 -14.0625 L 13.953125 0 L 4.296875 0 L 4.296875 -37.03125 L 19 -37.03125 C 20.144531 -37.03125 21.144531 -37.007812 22 -36.96875 C 22.863281 -36.9375 23.796875 -36.867188 24.796875 -36.765625 C 26.585938 -36.546875 28.242188 -36.078125 29.765625 -35.359375 C 31.285156 -34.648438 32.507812 -33.613281 33.4375 -32.25 C 34.363281 -30.894531 34.828125 -29.125 34.828125 -26.9375 C 34.828125 -22.25 32.34375 -19.175781 27.375 -17.71875 C 29.300781 -17.03125 30.6875 -15.960938 31.53125 -14.515625 C 32.375 -13.066406 32.921875 -11.234375 33.171875 -9.015625 Z M 13.953125 -21.046875 L 17.4375 -21.046875 C 17.9375 -21.046875 18.398438 -21.046875 18.828125 -21.046875 C 19.265625 -21.046875 19.660156 -21.0625 20.015625 -21.09375 C 21.265625 -21.195312 22.363281 -21.535156 23.3125 -22.109375 C 24.269531 -22.679688 24.75 -23.738281 24.75 -25.28125 C 24.75 -26.851562 24.316406 -27.914062 23.453125 -28.46875 C 22.597656 -29.03125 21.539062 -29.363281 20.28125 -29.46875 C 19.925781 -29.5 19.535156 -29.515625 19.109375 -29.515625 C 18.679688 -29.515625 18.21875 -29.515625 17.71875 -29.515625 L 13.953125 -29.515625 Z M 13.953125 -21.046875 "/></g></g></g><g fill="#fcf7ef" fill-opacity="1"><g transform="translate(230.09819, 49.910625)"><g><path d="M 23.453125 -14.171875 L 23.453125 0 L 13.796875 0 L 13.796875 -14.171875 L 0.75 -37.03125 L 11.59375 -37.03125 L 18.890625 -22.375 L 25.921875 -37.03125 L 36.5 -37.03125 Z M 23.453125 -14.171875 "/></g></g></g></g></g></svg>