<svg xmlns="http://www.w3.org/2000/svg" xmlns:xlink="http://www.w3.org/1999/xlink" width="2000" zoomAndPan="magnify" viewBox="0 0 1500 1499.999933" height="2000" preserveAspectRatio="xMidYMid meet" version="1.0"><defs><g/><clipPath id="b69baa118a"><rect x="0" width="284" y="0" height="42"/></clipPath></defs><g fill="#56644b" fill-opacity="1"><g transform="translate(100.148154, 777.385233)"><g><path d="M 6.234375 -205.921875 L 6.234375 -208 L 155.171875 -208 L 155.171875 -179.921875 L 153.09375 -179.921875 L 153.09375 -180.75 C 153.09375 -187.6875 146.539062 -193.613281 133.4375 -198.53125 C 120.332031 -203.457031 101.785156 -205.921875 77.796875 -205.921875 L 43.265625 -205.921875 L 43.265625 -116.484375 C 46.453125 -119.535156 50.085938 -121.890625 54.171875 -123.546875 C 58.265625 -125.210938 62.671875 -126.046875 67.390625 -126.046875 C 72.523438 -126.046875 77.207031 -125.382812 81.4375 -124.0625 C 85.664062 -122.75 89.6875 -121.257812 93.5 -119.59375 C 97.3125 -117.9375 101.15625 -116.445312 105.03125 -115.125 C 108.914062 -113.8125 113.148438 -113.15625 117.734375 -113.15625 C 121.753906 -113.15625 125.320312 -114.226562 128.4375 -116.375 C 131.5625 -118.519531 133.125 -121.398438 133.125 -125.015625 L 135.203125 -125.015625 C 135.203125 -118.910156 132.804688 -113.566406 128.015625 -108.984375 C 123.234375 -104.410156 116.753906 -102.125 108.578125 -102.125 C 102.203125 -102.125 96.65625 -103.023438 91.9375 -104.828125 C 87.21875 -106.628906 82.984375 -108.707031 79.234375 -111.0625 C 75.492188 -113.425781 71.925781 -115.539062 68.53125 -117.40625 C 65.132812 -119.28125 61.566406 -120.289062 57.828125 -120.4375 C 54.773438 -120.570312 52 -119.945312 49.5 -118.5625 C 47.007812 -117.175781 44.929688 -115.375 43.265625 -113.15625 L 43.265625 -2.078125 L 69.890625 -2.078125 C 73.210938 -2.078125 77.539062 -2.179688 82.875 -2.390625 C 88.21875 -2.597656 94.007812 -3.046875 100.25 -3.734375 C 106.488281 -4.429688 112.691406 -5.507812 118.859375 -6.96875 C 125.035156 -8.425781 130.722656 -10.332031 135.921875 -12.6875 C 141.128906 -15.039062 145.289062 -17.984375 148.40625 -21.515625 C 151.53125 -25.054688 153.09375 -29.320312 153.09375 -34.3125 L 155.171875 -34.3125 L 155.171875 0 L 6.234375 0 L 6.234375 -2.078125 C 12.203125 -2.078125 16.535156 -3.878906 19.234375 -7.484375 C 21.941406 -11.085938 23.640625 -16.976562 24.328125 -25.15625 C 25.023438 -33.34375 25.375 -44.234375 25.375 -57.828125 L 25.375 -150.171875 C 25.375 -163.898438 25.023438 -174.820312 24.328125 -182.9375 C 23.640625 -191.050781 21.941406 -196.910156 19.234375 -200.515625 C 16.535156 -204.117188 12.203125 -205.921875 6.234375 -205.921875 Z M 6.234375 -205.921875 "/></g></g></g><g fill="#56644b" fill-opacity="1"><g transform="translate(254.273809, 777.385233)"><g><path d="M 6.234375 0 L 6.234375 -2.078125 C 12.203125 -2.078125 16.535156 -3.878906 19.234375 -7.484375 C 21.941406 -11.085938 23.640625 -16.976562 24.328125 -25.15625 C 25.023438 -33.34375 25.375 -44.234375 25.375 -57.828125 L 25.375 -150.171875 C 25.375 -163.898438 25.023438 -174.820312 24.328125 -182.9375 C 23.640625 -191.050781 21.941406 -196.910156 19.234375 -200.515625 C 16.535156 -204.117188 12.203125 -205.921875 6.234375 -205.921875 L 6.234375 -208 L 43.265625 -208 L 43.265625 -57.828125 C 43.265625 -44.234375 43.609375 -33.34375 44.296875 -25.15625 C 44.992188 -16.976562 46.691406 -11.085938 49.390625 -7.484375 C 52.097656 -3.878906 56.4375 -2.078125 62.40625 -2.078125 L 62.40625 0 Z M 6.234375 0 "/></g></g></g><g fill="#56644b" fill-opacity="1"><g transform="translate(315.632767, 777.385233)"><g><path d="M 12.484375 -8.53125 L 12.484375 -33.90625 L 14.5625 -33.90625 C 14.5625 -31.40625 15.632812 -28.144531 17.78125 -24.125 C 19.9375 -20.101562 23.160156 -16.046875 27.453125 -11.953125 C 31.753906 -7.867188 37.023438 -4.472656 43.265625 -1.765625 C 49.503906 0.929688 56.710938 2.210938 64.890625 2.078125 C 72.523438 1.941406 79.769531 0.417969 86.625 -2.484375 C 93.488281 -5.398438 99.101562 -9.628906 103.46875 -15.171875 C 107.84375 -20.722656 110.03125 -27.519531 110.03125 -35.5625 C 110.03125 -41.800781 108.332031 -46.863281 104.9375 -50.75 C 101.539062 -54.632812 97.03125 -57.820312 91.40625 -60.3125 C 85.789062 -62.8125 79.585938 -65.03125 72.796875 -66.96875 C 66.003906 -68.914062 59.242188 -71 52.515625 -73.21875 C 45.796875 -75.4375 39.625 -78.207031 34 -81.53125 C 28.382812 -84.863281 23.878906 -89.234375 20.484375 -94.640625 C 17.085938 -100.046875 15.390625 -106.910156 15.390625 -115.234375 C 15.390625 -121.753906 17.296875 -127.75 21.109375 -133.21875 C 24.921875 -138.695312 30.640625 -143.097656 38.265625 -146.421875 C 45.898438 -149.753906 55.332031 -151.421875 66.5625 -151.421875 C 75.289062 -151.421875 82.914062 -150.691406 89.4375 -149.234375 C 95.957031 -147.785156 101.332031 -146.085938 105.5625 -144.140625 C 109.789062 -142.203125 112.941406 -140.503906 115.015625 -139.046875 C 117.097656 -137.585938 118.140625 -136.859375 118.140625 -136.859375 L 118.140625 -112.3125 L 117.3125 -112.3125 C 113.289062 -124.238281 106.945312 -133.390625 98.28125 -139.765625 C 89.613281 -146.148438 79.734375 -149.34375 68.640625 -149.34375 C 59.898438 -149.34375 52.445312 -147.921875 46.28125 -145.078125 C 40.113281 -142.234375 35.429688 -138.523438 32.234375 -133.953125 C 29.046875 -129.378906 27.453125 -124.457031 27.453125 -119.1875 C 27.453125 -113.082031 29.253906 -108.050781 32.859375 -104.09375 C 36.460938 -100.144531 41.210938 -96.890625 47.109375 -94.328125 C 53.003906 -91.765625 59.488281 -89.441406 66.5625 -87.359375 C 73.632812 -85.273438 80.707031 -83.054688 87.78125 -80.703125 C 94.851562 -78.347656 101.332031 -75.4375 107.21875 -71.96875 C 113.113281 -68.5 117.863281 -64.0625 121.46875 -58.65625 C 125.070312 -53.25 126.875 -46.453125 126.875 -38.265625 C 126.875 -30.640625 125.175781 -24.125 121.78125 -18.71875 C 118.382812 -13.3125 113.773438 -8.941406 107.953125 -5.609375 C 102.128906 -2.285156 95.503906 0.171875 88.078125 1.765625 C 80.660156 3.359375 72.929688 4.15625 64.890625 4.15625 C 43.117188 4.15625 25.648438 -0.0703125 12.484375 -8.53125 Z M 12.484375 -8.53125 "/></g></g></g><g fill="#56644b" fill-opacity="1"><g transform="translate(447.710733, 777.385233)"><g><path d="M 83.828125 4.15625 C 72.585938 4.15625 62.566406 2.144531 53.765625 -1.875 C 44.960938 -5.894531 37.507812 -11.472656 31.40625 -18.609375 C 25.300781 -25.753906 20.617188 -34.039062 17.359375 -43.46875 C 14.109375 -52.894531 12.484375 -62.945312 12.484375 -73.625 C 12.484375 -84.300781 14.109375 -94.351562 17.359375 -103.78125 C 20.617188 -113.21875 25.300781 -121.503906 31.40625 -128.640625 C 37.507812 -135.785156 44.960938 -141.367188 53.765625 -145.390625 C 62.566406 -149.410156 72.585938 -151.421875 83.828125 -151.421875 C 95.054688 -151.421875 104.691406 -149.960938 112.734375 -147.046875 C 120.773438 -144.140625 127.359375 -140.328125 132.484375 -135.609375 C 137.617188 -130.898438 141.398438 -125.769531 143.828125 -120.21875 C 146.253906 -114.675781 147.46875 -109.269531 147.46875 -104 C 147.332031 -92.207031 144.003906 -82.984375 137.484375 -76.328125 C 130.972656 -69.679688 121.753906 -66.359375 109.828125 -66.359375 C 101.503906 -66.359375 94.394531 -67.289062 88.5 -69.15625 C 82.601562 -71.03125 77.398438 -73.179688 72.890625 -75.609375 C 68.390625 -78.035156 64.023438 -80.179688 59.796875 -82.046875 C 55.566406 -83.921875 50.890625 -84.859375 45.765625 -84.859375 C 43.265625 -84.859375 41.007812 -84.195312 39 -82.875 C 36.988281 -81.5625 35.84375 -80.488281 35.5625 -79.65625 L 34.734375 -79.875 C 34.734375 -84.164062 36.570312 -88.007812 40.25 -91.40625 C 43.925781 -94.8125 49.367188 -96.515625 56.578125 -96.515625 C 61.984375 -96.515625 67.113281 -95.125 71.96875 -92.34375 C 76.820312 -89.570312 81.46875 -86.347656 85.90625 -82.671875 C 90.34375 -79.003906 94.640625 -75.78125 98.796875 -73 C 102.960938 -70.226562 107.125 -68.84375 111.28125 -68.84375 C 116.40625 -68.84375 120.628906 -70.785156 123.953125 -74.671875 C 127.285156 -78.554688 129.609375 -83.515625 130.921875 -89.546875 C 132.242188 -95.578125 132.347656 -102.023438 131.234375 -108.890625 C 130.128906 -115.753906 127.707031 -122.203125 123.96875 -128.234375 C 120.226562 -134.265625 115.03125 -139.21875 108.375 -143.09375 C 101.71875 -146.976562 93.394531 -148.921875 83.40625 -148.921875 C 74.945312 -148.921875 67.664062 -147.289062 61.5625 -144.03125 C 55.46875 -140.78125 50.410156 -136.445312 46.390625 -131.03125 C 42.367188 -125.625 39.144531 -119.660156 36.71875 -113.140625 C 34.289062 -106.628906 32.585938 -99.972656 31.609375 -93.171875 C 30.640625 -86.378906 30.226562 -80.070312 30.375 -74.25 C 30.507812 -64.550781 31.960938 -55.398438 34.734375 -46.796875 C 37.503906 -38.203125 41.488281 -30.609375 46.6875 -24.015625 C 51.894531 -17.429688 58.238281 -12.265625 65.71875 -8.515625 C 73.207031 -4.773438 81.738281 -2.90625 91.3125 -2.90625 C 95.46875 -2.90625 100.109375 -3.53125 105.234375 -4.78125 C 110.367188 -6.03125 115.535156 -8.039062 120.734375 -10.8125 C 125.941406 -13.582031 130.726562 -17.253906 135.09375 -21.828125 C 139.457031 -26.410156 142.890625 -32.03125 145.390625 -38.6875 L 148.296875 -37.4375 C 142.890625 -25.09375 134.675781 -15.070312 123.65625 -7.375 C 112.632812 0.308594 99.359375 4.15625 83.828125 4.15625 Z M 83.828125 4.15625 "/></g></g></g><g fill="#56644b" fill-opacity="1"><g transform="translate(601.21238, 777.385233)"><g><path d="M 0 -145.1875 L 0 -147.265625 L 25.578125 -147.265625 C 30.296875 -147.265625 34.078125 -145.492188 36.921875 -141.953125 C 39.765625 -138.421875 41.8125 -134.644531 43.0625 -130.625 C 45.832031 -121.75 48.394531 -113.394531 50.75 -105.5625 C 53.101562 -97.726562 55.425781 -89.992188 57.71875 -82.359375 C 60.007812 -74.734375 62.472656 -66.726562 65.109375 -58.34375 C 67.742188 -49.957031 70.65625 -40.703125 73.84375 -30.578125 C 75.78125 -24.753906 78.03125 -20.382812 80.59375 -17.46875 C 83.164062 -14.5625 85.976562 -12.898438 89.03125 -12.484375 C 94.289062 -28.566406 99.101562 -43.578125 103.46875 -57.515625 C 107.84375 -71.453125 111.898438 -84.867188 115.640625 -97.765625 C 114.398438 -101.503906 113.082031 -106.039062 111.6875 -111.375 C 110.300781 -116.71875 108.535156 -121.953125 106.390625 -127.078125 C 104.242188 -132.210938 101.570312 -136.515625 98.375 -139.984375 C 95.1875 -143.453125 91.164062 -145.1875 86.3125 -145.1875 L 81.328125 -145.1875 L 81.328125 -147.265625 L 106.90625 -147.265625 C 111.625 -147.265625 115.40625 -145.492188 118.25 -141.953125 C 121.09375 -138.421875 123.140625 -134.644531 124.390625 -130.625 C 127.160156 -121.75 129.722656 -113.394531 132.078125 -105.5625 C 134.429688 -97.726562 136.753906 -89.992188 139.046875 -82.359375 C 141.335938 -74.734375 143.800781 -66.726562 146.4375 -58.34375 C 149.070312 -49.957031 151.984375 -40.703125 155.171875 -30.578125 C 157.109375 -24.753906 159.359375 -20.382812 161.921875 -17.46875 C 164.492188 -14.5625 167.304688 -12.898438 170.359375 -12.484375 C 175.617188 -29.117188 180.503906 -44.578125 185.015625 -58.859375 C 189.523438 -73.140625 193.71875 -86.867188 197.59375 -100.046875 C 198.84375 -104.203125 199.847656 -108.847656 200.609375 -113.984375 C 201.378906 -119.117188 201.519531 -124.078125 201.03125 -128.859375 C 200.539062 -133.640625 198.941406 -137.554688 196.234375 -140.609375 C 193.535156 -143.660156 189.273438 -145.1875 183.453125 -145.1875 L 178.875 -145.1875 L 178.875 -147.265625 L 233.578125 -147.265625 L 233.578125 -145.1875 L 230.046875 -145.1875 C 226.441406 -145.1875 223.113281 -143.691406 220.0625 -140.703125 C 217.007812 -137.722656 214.269531 -134.015625 211.84375 -129.578125 C 209.414062 -125.140625 207.335938 -120.664062 205.609375 -116.15625 C 203.878906 -111.65625 202.523438 -107.8125 201.546875 -104.625 C 196.554688 -88.257812 191.359375 -71.335938 185.953125 -53.859375 C 180.546875 -36.390625 174.441406 -17.050781 167.640625 4.15625 C 167.640625 4.15625 166.597656 4.117188 164.515625 4.046875 C 162.441406 3.984375 159.8125 3.082031 156.625 1.34375 C 153.4375 -0.382812 150.039062 -3.707031 146.4375 -8.625 C 142.832031 -13.550781 139.503906 -20.867188 136.453125 -30.578125 C 132.566406 -42.921875 128.992188 -54.148438 125.734375 -64.265625 C 122.472656 -74.390625 119.457031 -84.238281 116.6875 -93.8125 C 112.25 -79.25 107.566406 -63.957031 102.640625 -47.9375 C 97.722656 -31.925781 92.28125 -14.558594 86.3125 4.15625 C 86.3125 4.15625 85.304688 4.117188 83.296875 4.046875 C 81.285156 3.984375 78.648438 3.082031 75.390625 1.34375 C 72.140625 -0.382812 68.742188 -3.707031 65.203125 -8.625 C 61.671875 -13.550781 58.3125 -20.867188 55.125 -30.578125 C 51.519531 -42.085938 48.257812 -52.488281 45.34375 -61.78125 C 42.425781 -71.070312 39.6875 -80.015625 37.125 -88.609375 C 34.5625 -97.203125 31.820312 -106.144531 28.90625 -115.4375 C 27.664062 -119.738281 26.140625 -124.175781 24.328125 -128.75 C 22.523438 -133.320312 20.097656 -137.203125 17.046875 -140.390625 C 14.003906 -143.585938 9.984375 -145.1875 4.984375 -145.1875 Z M 0 -145.1875 "/></g></g></g><g fill="#56644b" fill-opacity="1"><g transform="translate(827.513048, 777.385233)"><g><path d="M 6.234375 -2.078125 C 12.203125 -2.078125 16.535156 -3.878906 19.234375 -7.484375 C 21.941406 -11.085938 23.640625 -16.976562 24.328125 -25.15625 C 25.023438 -33.34375 25.375 -44.234375 25.375 -57.828125 L 25.375 -150.171875 C 25.375 -163.898438 25.023438 -174.820312 24.328125 -182.9375 C 23.640625 -191.050781 21.941406 -196.910156 19.234375 -200.515625 C 16.535156 -204.117188 12.203125 -205.921875 6.234375 -205.921875 L 6.234375 -208 L 43.265625 -208 L 43.265625 -147.890625 C 45.203125 -147.890625 47.972656 -148.0625 51.578125 -148.40625 C 55.179688 -148.75 59.132812 -149.164062 63.4375 -149.65625 C 67.738281 -150.144531 71.828125 -150.5625 75.703125 -150.90625 C 79.585938 -151.25 82.640625 -151.421875 84.859375 -151.421875 C 88.609375 -151.421875 92.875 -151.175781 97.65625 -150.6875 C 102.4375 -150.207031 107.320312 -149.171875 112.3125 -147.578125 C 117.3125 -145.984375 121.925781 -143.519531 126.15625 -140.1875 C 130.382812 -136.863281 133.816406 -132.359375 136.453125 -126.671875 C 139.085938 -120.984375 140.40625 -113.773438 140.40625 -105.046875 L 140.40625 -57.828125 C 140.40625 -44.234375 140.75 -33.34375 141.4375 -25.15625 C 142.132812 -16.976562 143.832031 -11.085938 146.53125 -7.484375 C 149.238281 -3.878906 153.570312 -2.078125 159.53125 -2.078125 L 159.53125 0 L 103.375 0 L 103.375 -2.078125 C 109.332031 -2.078125 113.664062 -3.878906 116.375 -7.484375 C 119.082031 -11.085938 120.78125 -16.976562 121.46875 -25.15625 C 122.164062 -33.34375 122.515625 -44.234375 122.515625 -57.828125 C 122.515625 -59.078125 122.515625 -61.328125 122.515625 -64.578125 C 122.515625 -67.835938 122.515625 -71.515625 122.515625 -75.609375 C 122.515625 -79.703125 122.476562 -83.65625 122.40625 -87.46875 C 122.332031 -91.28125 122.296875 -94.429688 122.296875 -96.921875 C 122.296875 -99.421875 122.296875 -100.671875 122.296875 -100.671875 C 122.296875 -109.960938 121.148438 -117.585938 118.859375 -123.546875 C 116.578125 -129.515625 113.597656 -134.195312 109.921875 -137.59375 C 106.253906 -140.988281 102.304688 -143.484375 98.078125 -145.078125 C 93.847656 -146.671875 89.71875 -147.640625 85.6875 -147.984375 C 81.664062 -148.335938 78.269531 -148.515625 75.5 -148.515625 C 70.226562 -148.515625 64.785156 -147.957031 59.171875 -146.84375 C 53.554688 -145.738281 48.253906 -144.285156 43.265625 -142.484375 L 43.265625 -57.828125 C 43.265625 -44.234375 43.609375 -33.34375 44.296875 -25.15625 C 44.992188 -16.976562 46.691406 -11.085938 49.390625 -7.484375 C 52.097656 -3.878906 56.4375 -2.078125 62.40625 -2.078125 L 62.40625 0 L 6.234375 0 Z M 6.234375 -2.078125 "/></g></g></g><g fill="#56644b" fill-opacity="1"><g transform="translate(983.926667, 777.385233)"><g><path d="M 83.828125 4.15625 C 72.585938 4.15625 62.566406 2.144531 53.765625 -1.875 C 44.960938 -5.894531 37.507812 -11.472656 31.40625 -18.609375 C 25.300781 -25.753906 20.617188 -34.039062 17.359375 -43.46875 C 14.109375 -52.894531 12.484375 -62.945312 12.484375 -73.625 C 12.484375 -84.300781 14.109375 -94.351562 17.359375 -103.78125 C 20.617188 -113.21875 25.300781 -121.503906 31.40625 -128.640625 C 37.507812 -135.785156 44.960938 -141.367188 53.765625 -145.390625 C 62.566406 -149.410156 72.585938 -151.421875 83.828125 -151.421875 C 95.054688 -151.421875 104.691406 -149.960938 112.734375 -147.046875 C 120.773438 -144.140625 127.359375 -140.328125 132.484375 -135.609375 C 137.617188 -130.898438 141.398438 -125.769531 143.828125 -120.21875 C 146.253906 -114.675781 147.46875 -109.269531 147.46875 -104 C 147.332031 -92.207031 144.003906 -82.984375 137.484375 -76.328125 C 130.972656 -69.679688 121.753906 -66.359375 109.828125 -66.359375 C 101.503906 -66.359375 94.394531 -67.289062 88.5 -69.15625 C 82.601562 -71.03125 77.398438 -73.179688 72.890625 -75.609375 C 68.390625 -78.035156 64.023438 -80.179688 59.796875 -82.046875 C 55.566406 -83.921875 50.890625 -84.859375 45.765625 -84.859375 C 43.265625 -84.859375 41.007812 -84.195312 39 -82.875 C 36.988281 -81.5625 35.84375 -80.488281 35.5625 -79.65625 L 34.734375 -79.875 C 34.734375 -84.164062 36.570312 -88.007812 40.25 -91.40625 C 43.925781 -94.8125 49.367188 -96.515625 56.578125 -96.515625 C 61.984375 -96.515625 67.113281 -95.125 71.96875 -92.34375 C 76.820312 -89.570312 81.46875 -86.347656 85.90625 -82.671875 C 90.34375 -79.003906 94.640625 -75.78125 98.796875 -73 C 102.960938 -70.226562 107.125 -68.84375 111.28125 -68.84375 C 116.40625 -68.84375 120.628906 -70.785156 123.953125 -74.671875 C 127.285156 -78.554688 129.609375 -83.515625 130.921875 -89.546875 C 132.242188 -95.578125 132.347656 -102.023438 131.234375 -108.890625 C 130.128906 -115.753906 127.707031 -122.203125 123.96875 -128.234375 C 120.226562 -134.265625 115.03125 -139.21875 108.375 -143.09375 C 101.71875 -146.976562 93.394531 -148.921875 83.40625 -148.921875 C 74.945312 -148.921875 67.664062 -147.289062 61.5625 -144.03125 C 55.46875 -140.78125 50.410156 -136.445312 46.390625 -131.03125 C 42.367188 -125.625 39.144531 -119.660156 36.71875 -113.140625 C 34.289062 -106.628906 32.585938 -99.972656 31.609375 -93.171875 C 30.640625 -86.378906 30.226562 -80.070312 30.375 -74.25 C 30.507812 -64.550781 31.960938 -55.398438 34.734375 -46.796875 C 37.503906 -38.203125 41.488281 -30.609375 46.6875 -24.015625 C 51.894531 -17.429688 58.238281 -12.265625 65.71875 -8.515625 C 73.207031 -4.773438 81.738281 -2.90625 91.3125 -2.90625 C 95.46875 -2.90625 100.109375 -3.53125 105.234375 -4.78125 C 110.367188 -6.03125 115.535156 -8.039062 120.734375 -10.8125 C 125.941406 -13.582031 130.726562 -17.253906 135.09375 -21.828125 C 139.457031 -26.410156 142.890625 -32.03125 145.390625 -38.6875 L 148.296875 -37.4375 C 142.890625 -25.09375 134.675781 -15.070312 123.65625 -7.375 C 112.632812 0.308594 99.359375 4.15625 83.828125 4.15625 Z M 83.828125 4.15625 "/></g></g></g><g fill="#56644b" fill-opacity="1"><g transform="translate(1137.428366, 777.385233)"><g><path d="M 62.40625 0 L 6.234375 0 L 6.234375 -2.078125 C 12.203125 -2.078125 16.535156 -3.878906 19.234375 -7.484375 C 21.941406 -11.085938 23.640625 -16.976562 24.328125 -25.15625 C 25.023438 -33.34375 25.375 -44.234375 25.375 -57.828125 L 25.375 -89.4375 C 25.375 -103.164062 25.023438 -114.085938 24.328125 -122.203125 C 23.640625 -130.316406 21.941406 -136.175781 19.234375 -139.78125 C 16.535156 -143.382812 12.203125 -145.1875 6.234375 -145.1875 L 6.234375 -147.265625 L 30.375 -147.265625 C 42.289062 -147.265625 54.695312 -147.957031 67.59375 -149.34375 C 80.488281 -150.726562 92.691406 -151.421875 104.203125 -151.421875 C 113.492188 -151.421875 121.191406 -149.203125 127.296875 -144.765625 C 133.398438 -140.328125 136.453125 -134.085938 136.453125 -126.046875 C 136.453125 -120.503906 134.957031 -115.753906 131.96875 -111.796875 C 128.988281 -107.847656 124.519531 -105.875 118.5625 -105.875 C 115.644531 -105.875 113.007812 -106.738281 110.65625 -108.46875 C 108.300781 -110.207031 107.125 -112.53125 107.125 -115.4375 C 110.03125 -115.570312 112.628906 -117.128906 114.921875 -120.109375 C 117.210938 -123.097656 118.359375 -126.742188 118.359375 -131.046875 C 118.359375 -135.890625 116.519531 -140.007812 112.84375 -143.40625 C 109.164062 -146.8125 103.582031 -148.515625 96.09375 -148.515625 C 92.90625 -148.515625 88.914062 -148.375 84.125 -148.09375 C 79.34375 -147.820312 74.382812 -147.40625 69.25 -146.84375 C 64.125 -146.289062 59.238281 -145.664062 54.59375 -144.96875 C 49.945312 -144.28125 46.171875 -143.453125 43.265625 -142.484375 L 43.265625 -57.828125 C 43.265625 -44.234375 43.609375 -33.34375 44.296875 -25.15625 C 44.992188 -16.976562 46.691406 -11.085938 49.390625 -7.484375 C 52.097656 -3.878906 56.4375 -2.078125 62.40625 -2.078125 Z M 62.40625 0 "/></g></g></g><g fill="#56644b" fill-opacity="1"><g transform="translate(1270.754309, 777.385233)"><g><path d="M 83.828125 4.15625 C 72.585938 4.15625 62.566406 2.144531 53.765625 -1.875 C 44.960938 -5.894531 37.507812 -11.472656 31.40625 -18.609375 C 25.300781 -25.753906 20.617188 -34.039062 17.359375 -43.46875 C 14.109375 -52.894531 12.484375 -62.945312 12.484375 -73.625 C 12.484375 -84.300781 14.109375 -94.351562 17.359375 -103.78125 C 20.617188 -113.21875 25.300781 -121.503906 31.40625 -128.640625 C 37.507812 -135.785156 44.960938 -141.367188 53.765625 -145.390625 C 62.566406 -149.410156 72.585938 -151.421875 83.828125 -151.421875 C 95.054688 -151.421875 104.691406 -149.960938 112.734375 -147.046875 C 120.773438 -144.140625 127.359375 -140.328125 132.484375 -135.609375 C 137.617188 -130.898438 141.398438 -125.769531 143.828125 -120.21875 C 146.253906 -114.675781 147.46875 -109.269531 147.46875 -104 C 147.332031 -92.207031 144.003906 -82.984375 137.484375 -76.328125 C 130.972656 -69.679688 121.753906 -66.359375 109.828125 -66.359375 C 101.503906 -66.359375 94.394531 -67.289062 88.5 -69.15625 C 82.601562 -71.03125 77.398438 -73.179688 72.890625 -75.609375 C 68.390625 -78.035156 64.023438 -80.179688 59.796875 -82.046875 C 55.566406 -83.921875 50.890625 -84.859375 45.765625 -84.859375 C 43.265625 -84.859375 41.007812 -84.195312 39 -82.875 C 36.988281 -81.5625 35.84375 -80.488281 35.5625 -79.65625 L 34.734375 -79.875 C 34.734375 -84.164062 36.570312 -88.007812 40.25 -91.40625 C 43.925781 -94.8125 49.367188 -96.515625 56.578125 -96.515625 C 61.984375 -96.515625 67.113281 -95.125 71.96875 -92.34375 C 76.820312 -89.570312 81.46875 -86.347656 85.90625 -82.671875 C 90.34375 -79.003906 94.640625 -75.78125 98.796875 -73 C 102.960938 -70.226562 107.125 -68.84375 111.28125 -68.84375 C 116.40625 -68.84375 120.628906 -70.785156 123.953125 -74.671875 C 127.285156 -78.554688 129.609375 -83.515625 130.921875 -89.546875 C 132.242188 -95.578125 132.347656 -102.023438 131.234375 -108.890625 C 130.128906 -115.753906 127.707031 -122.203125 123.96875 -128.234375 C 120.226562 -134.265625 115.03125 -139.21875 108.375 -143.09375 C 101.71875 -146.976562 93.394531 -148.921875 83.40625 -148.921875 C 74.945312 -148.921875 67.664062 -147.289062 61.5625 -144.03125 C 55.46875 -140.78125 50.410156 -136.445312 46.390625 -131.03125 C 42.367188 -125.625 39.144531 -119.660156 36.71875 -113.140625 C 34.289062 -106.628906 32.585938 -99.972656 31.609375 -93.171875 C 30.640625 -86.378906 30.226562 -80.070312 30.375 -74.25 C 30.507812 -64.550781 31.960938 -55.398438 34.734375 -46.796875 C 37.503906 -38.203125 41.488281 -30.609375 46.6875 -24.015625 C 51.894531 -17.429688 58.238281 -12.265625 65.71875 -8.515625 C 73.207031 -4.773438 81.738281 -2.90625 91.3125 -2.90625 C 95.46875 -2.90625 100.109375 -3.53125 105.234375 -4.78125 C 110.367188 -6.03125 115.535156 -8.039062 120.734375 -10.8125 C 125.941406 -13.582031 130.726562 -17.253906 135.09375 -21.828125 C 139.457031 -26.410156 142.890625 -32.03125 145.390625 -38.6875 L 148.296875 -37.4375 C 142.890625 -25.09375 134.675781 -15.070312 123.65625 -7.375 C 112.632812 0.308594 99.359375 4.15625 83.828125 4.15625 Z M 83.828125 4.15625 "/></g></g></g><g transform="matrix(1, 0, 0, 1, 616, 852)"><g clip-path="url(#b69baa118a)"><g fill="#56644b" fill-opacity="1"><g transform="translate(1.942587, 32.696666)"><g><path d="M 2.109375 -24.046875 L 12.453125 -24.046875 C 13.710938 -24.046875 14.835938 -23.796875 15.828125 -23.296875 C 16.828125 -22.796875 17.601562 -22.09375 18.15625 -21.1875 C 18.71875 -20.289062 19 -19.257812 19 -18.09375 C 19 -16.757812 18.65625 -15.609375 17.96875 -14.640625 C 17.28125 -13.671875 16.398438 -13 15.328125 -12.625 L 15.328125 -12.484375 C 16.566406 -12.109375 17.582031 -11.382812 18.375 -10.3125 C 19.164062 -9.238281 19.5625 -7.953125 19.5625 -6.453125 C 19.5625 -5.140625 19.238281 -4 18.59375 -3.03125 C 17.957031 -2.0625 17.097656 -1.3125 16.015625 -0.78125 C 14.941406 -0.257812 13.753906 0 12.453125 0 L 2.109375 0 Z M 11.21875 -14.3125 C 12.25 -14.3125 13.035156 -14.585938 13.578125 -15.140625 C 14.128906 -15.703125 14.40625 -16.414062 14.40625 -17.28125 C 14.40625 -18.175781 14.132812 -18.863281 13.59375 -19.34375 C 13.0625 -19.820312 12.34375 -20.0625 11.4375 -20.0625 L 6.59375 -20.0625 L 6.59375 -14.3125 Z M 11.703125 -4 C 12.671875 -4 13.457031 -4.257812 14.0625 -4.78125 C 14.664062 -5.3125 14.96875 -6.054688 14.96875 -7.015625 C 14.96875 -7.992188 14.671875 -8.789062 14.078125 -9.40625 C 13.484375 -10.03125 12.625 -10.34375 11.5 -10.34375 L 6.59375 -10.34375 L 6.59375 -4 Z M 11.703125 -4 "/></g></g></g><g fill="#56644b" fill-opacity="1"><g transform="translate(39.424334, 32.696666)"><g><path d="M 7.359375 -9.078125 L 0 -24.046875 L 4.734375 -24.046875 L 9.640625 -13.5 L 9.78125 -13.5 L 14.65625 -24.046875 L 19.171875 -24.046875 L 11.84375 -9.078125 L 11.84375 0 L 7.359375 0 Z M 7.359375 -9.078125 "/></g></g></g><g fill="#56644b" fill-opacity="1"><g transform="translate(75.328252, 32.696666)"><g/></g></g><g fill="#56644b" fill-opacity="1"><g transform="translate(100.047242, 32.696666)"><g><path d="M 7.75 -24.046875 L 12.96875 -24.046875 L 20.71875 0 L 16.125 0 L 14.65625 -4.734375 L 5.78125 -4.734375 L 4.34375 0 L 0 0 Z M 13.421875 -8.734375 L 11.015625 -16.765625 C 10.847656 -17.273438 10.691406 -17.890625 10.546875 -18.609375 C 10.410156 -19.335938 10.332031 -19.804688 10.3125 -20.015625 L 10.171875 -20.015625 C 10.117188 -19.785156 10.019531 -19.300781 9.875 -18.5625 C 9.738281 -17.832031 9.601562 -17.234375 9.46875 -16.765625 L 7.015625 -8.734375 Z M 13.421875 -8.734375 "/></g></g></g><g fill="#56644b" fill-opacity="1"><g transform="translate(137.528989, 32.696666)"><g><path d="M 0 -24.046875 L 4.625 -24.046875 L 9.671875 -6.84375 L 9.8125 -6.84375 L 14.796875 -24.046875 L 19.171875 -24.046875 L 11.84375 0 L 7.328125 0 Z M 0 -24.046875 "/></g></g></g><g fill="#56644b" fill-opacity="1"><g transform="translate(173.432907, 32.696666)"><g><path d="M 2.109375 -24.046875 L 17.421875 -24.046875 L 17.421875 -20.0625 L 6.59375 -20.0625 L 6.59375 -14.3125 L 15.890625 -14.3125 L 15.890625 -10.3125 L 6.59375 -10.3125 L 6.59375 -4 L 17.640625 -4 L 17.640625 0 L 2.109375 0 Z M 2.109375 -24.046875 "/></g></g></g><g fill="#56644b" fill-opacity="1"><g transform="translate(209.336825, 32.696666)"><g><path d="M 2.109375 -24.046875 L 12.171875 -24.046875 C 14.523438 -24.046875 16.335938 -23.414062 17.609375 -22.15625 C 18.890625 -20.894531 19.53125 -19.238281 19.53125 -17.1875 C 19.53125 -15.726562 19.171875 -14.460938 18.453125 -13.390625 C 17.742188 -12.316406 16.757812 -11.523438 15.5 -11.015625 L 20.125 0 L 15.25 0 L 11.25 -10.03125 L 6.59375 -10.03125 L 6.59375 0 L 2.109375 0 Z M 11.53125 -13.984375 C 12.582031 -13.984375 13.367188 -14.257812 13.890625 -14.8125 C 14.421875 -15.363281 14.6875 -16.15625 14.6875 -17.1875 C 14.6875 -18.09375 14.441406 -18.796875 13.953125 -19.296875 C 13.460938 -19.804688 12.710938 -20.0625 11.703125 -20.0625 L 6.59375 -20.0625 L 6.59375 -13.984375 Z M 11.53125 -13.984375 "/></g></g></g><g fill="#56644b" fill-opacity="1"><g transform="translate(246.818572, 32.696666)"><g><path d="M 7.359375 -9.078125 L 0 -24.046875 L 4.734375 -24.046875 L 9.640625 -13.5 L 9.78125 -13.5 L 14.65625 -24.046875 L 19.171875 -24.046875 L 11.84375 -9.078125 L 11.84375 0 L 7.359375 0 Z M 7.359375 -9.078125 "/></g></g></g></g></g></svg>